<svg xmlns="http://www.w3.org/2000/svg" xmlns:xlink="http://www.w3.org/1999/xlink" xmlns:inkscape="http://www.inkscape.org/namespaces/inkscape" version="1.1" width="409.5445" height="162.74066" viewBox="0 0 409.5445 162.74066">
<defs>
<path id="font_1_1" d="M.68699648 .24691773C.68699648 .2579193 .6749878 .2579193 .6719971 .2579193 .6609955 .2579193 .6599884 .25691224 .651001 .23391724 .59298709 .095962528 .55799868 .0309906 .39898683 .0309906H.2769928C.24598694 .0309906 .24598694 .033996583 .24598694 .040985109 .24598694 .04698181 .24899292 .05697632 .25 .06298828L.31900025 .33789063H.4059906C.47399903 .33789063 .48098756 .32188417 .48098756 .29489137 .48098756 .28790284 .47999574 .27290345 .47200013 .24391175 .47200013 .24391175 .46998597 .23591614 .46998597 .23292542 .46998597 .220932 .47999574 .220932 .48599244 .220932 .49699403 .220932 .5 .22293091 .5039978 .24092102L.5589905 .46081544C.55999758 .4638214 .56199648 .47380067 .56199648 .47380067 .56199648 .48579408 .5499878 .48579408 .54599 .48579408 .5329895 .48579408 .5329895 .48280335 .5269928 .4618225 .5079956 .39086915 .4889984 .36888124 .4079895 .36888124H.32699586L.3880005 .6147003C.3959961 .64767459 .40299989 .64868167 .43598939 .64868167H.5609894C.6689911 .64868167 .69400027 .6186981 .69400027 .54776 .69400027 .5207672 .69200137 .507782 .68899539 .48379518 .6879883 .47880555 .68699648 .46980287 .68699648 .46681214 .68699648 .45481874 .69799807 .45481874 .70199587 .45481874 .71598818 .45481874 .71699526 .45881654 .71899417 .47680665L.74198916 .6536865C.7449951 .6796875 .7389984 .6796875 .71798709 .6796875H.25099183C.23399353 .6796875 .22399903 .6796875 .22399903 .6616821 .22399903 .64868167 .23098755 .64868167 .25099183 .64868167 .30899049 .64868167 .30899049 .64068606 .30899049 .6316986 .30899049 .6316986 .30899049 .623703 .30499269 .6087036L.17098999 .07298279C.16299439 .038986207 .15699768 .0309906 .08898926 .0309906 .07299805 .0309906 .06199646 .0309906 .06199646 .011993408 .06199646 0 .070999149 0 .08699036 0H.56599429C.58599856 0 .58699038 .0009918213 .59399417 .015991211L.68299868 .23492432C.6839905 .23692322 .68699648 .24691773 .68699648 .24691773Z"/>
<path id="font_1_2" d="M.48799134 .14335633C.48799134 .15335083 .47999574 .15335083 .47299195 .15335083 .46099855 .15335083 .45999146 .15235901 .45498658 .1363678 .42799378 .05038452 .37799073 .011245728 .33599855 .011245728 .31599427 .011245728 .2889862 .023361206 .2889862 .07537842 .2889862 .09938049 .2999878 .1423645 .30799867 .17633057L.34199525 .31324769C.35598756 .36524964 .3829956 .42037965 .42999269 .42037965 .43299867 .42037965 .45799256 .42037965 .47399903 .40625 .43399049 .39624024 .43399049 .35824586 .43399049 .35824586 .43399049 .34524537 .44299317 .32624818 .46899415 .32624818 .4869995 .32624818 .5179901 .34024049 .5179901 .37924195 .5179901 .43037416 .45999146 .4423828 .43099977 .4423828 .37599183 .4423828 .34298707 .3932495 .33299256 .37423707 .31098939 .43437196 .2619934 .4423828 .23699951 .4423828 .13699341 .4423828 .08299255 .31124879 .08299255 .28826905 .08299255 .27827455 .09298706 .27827455 .09799194 .27827455 .11099243 .27827455 .11099243 .27926637 .115997318 .29525758 .14299011 .38124085 .19499207 .42037965 .23498535 .42037965 .2639923 .42037965 .2829895 .3972473 .2829895 .35723878 .2829895 .3332367 .2709961 .28427125 .2619934 .2472992L.23899842 .15635681C.22299195 .09138489 .20199585 .011245728 .14199829 .011245728 .13899231 .011245728 .114990238 .011245728 .09799194 .025390625 .12799073 .03338623 .13699341 .058380128 .13699341 .07337952 .13699341 .09938049 .115997318 .1053772 .102996829 .1053772 .07798767 .1053772 .052993776 .0843811 .052993776 .051376344 .052993776 .012252808 .09498596-.0107421879 .14099121-.0107421879 .18899536-.0107421879 .22200012 .027389527 .23899842 .057388307 .25898744 .00024414063 .30799867-.0107421879 .33399964-.0107421879 .43699647-.0107421879 .48799134 .12336731 .48799134 .14335633Z"/>
<path id="font_1_3" d="M.35598756 .14305115C.35598756 .1530304 .34799195 .1530304 .34098817 .1530304 .32899476 .1530304 .32899476 .15203858 .32099916 .13406372 .30299378 .086135867 .2630005 .011245728 .20599365 .011245728 .1789856 .011245728 .1789856 .036209108 .1789856 .05218506 .1789856 .059173585 .1789856 .075149539 .18598938 .10310364L.2599945 .3996582H.34498597C.3619995 .3996582 .37298585 .3996582 .37298585 .4186554 .37298585 .43066407 .3639984 .43066407 .34799195 .43066407H.2679901L.30499269 .57865908C.30899049 .59265139 .30899049 .59465029 .30899049 .59965518 .30899049 .62065127 .2919922 .6256561 .28199769 .6256561 .25698854 .6256561 .24699402 .60466006 .24299622 .58966067L.20399475 .43066407H.11898804C.101989749 .43066407 .09098816 .43066407 .09098816 .4116516 .09098816 .3996582 .099990848 .3996582 .115997318 .3996582H.19599915L.12399292 .113098148C.12298584 .10910034 .11898804 .09312439 .11898804 .07914734 .11898804 .029220581 .1519928-.0107421879 .20399475-.0107421879 .30499269-.0107421879 .35598756 .13806153 .35598756 .14305115Z"/>
<path id="font_1_4" d="M.46798707 .10432434C.46798707 .10932922 .45999146 .12034607 .45199586 .12034607 .44799806 .12034607 .44699098 .11933899 .43899537 .10932922 .36499024 .015258789 .27598573 .011245728 .25898744 .011245728 .19400025 .011245728 .18299866 .08230591 .18299866 .12133789 .18299866 .15937805 .19299317 .204422 .19999695 .23144531H.23899842C.2689972 .23144531 .33599855 .23443604 .38398744 .25343324 .46299745 .2854309 .46299745 .35040284 .46299745 .35740663 .46299745 .40338136 .42599488 .4423828 .3619995 .4423828 .25698854 .4423828 .11399841 .34140016 .11399841 .16438294 .11399841 .0743103 .1619873-.0107421879 .25698854-.0107421879 .3849945-.0107421879 .46798707 .08930969 .46798707 .10432434M.4249878 .35940553C.4249878 .25343324 .2599945 .25343324 .22698975 .25343324H.20599365C.24899292 .41737367 .35198976 .42037965 .3619995 .42037965 .4019928 .42037965 .4249878 .39338685 .4249878 .35940553Z"/>
<path id="font_1_5" d="M.4889984 .37924195C.4889984 .43138124 .42399598 .4423828 .3909912 .4423828 .32199098 .4423828 .28599549 .39224244 .269989 .37023927 .25898744 .42337037 .21998596 .4423828 .18699646 .4423828 .15098572 .4423828 .1309967 .41937257 .114990238 .38923646 .09599304 .34924317 .08299255 .28823854 .08299255 .28823854 .08299255 .27824403 .09298706 .27824403 .09799194 .27824403 .11099243 .27824403 .11199951 .27923585 .116989139 .301239 .1349945 .37124635 .1539917 .42037965 .18499756 .42037965 .21099854 .42037965 .21099854 .39123536 .21099854 .38024903 .21099854 .36424256 .20799256 .34524537 .20399475 .3292389L.1289978 .029251099C.1269989 .023254395 .12599182 .018249512 .12599182 .01524353 .12599182 .004257202 .13398743-.0107421879 .1539917-.0107421879 .18399048-.0107421879 .19099427 .018249512 .19299317 .026245118L.2579956 .28823854C.25898744 .2912445 .3039856 .42037965 .3899994 .42037965 .394989 .42037965 .4229889 .42037965 .44299317 .40625 .4079895 .3952484 .40499879 .36323548 .40499879 .35824586 .40499879 .34524537 .4139862 .32624818 .43998719 .32624818 .45799256 .32624818 .4889984 .34024049 .4889984 .37924195Z"/>
<path id="font_1_6" d="M.58599856 .14329529C.58599856 .1532898 .5779877 .1532898 .57099917 .1532898 .55799868 .1532898 .55799868 .1512909 .55400088 .1362915 .54599 .10928345 .5189972 .011245728 .46099855 .011245728 .43998719 .011245728 .43899537 .026260376 .43899537 .040252687 .43899537 .06526184 .44898988 .091278079 .45700074 .11528015 .47698976 .16830445 .5179901 .28033448 .5179901 .3383484 .5179901 .42037965 .46299745 .4423828 .4139862 .4423828 .33198548 .4423828 .28399659 .38235475 .2709961 .36335755 .2639923 .41236878 .22999573 .4423828 .18699646 .4423828 .15098572 .4423828 .1309967 .41937257 .114990238 .38935853 .09599304 .34934999 .08299255 .28833009 .08299255 .28833009 .08299255 .27833558 .09298706 .27833558 .09799194 .27833558 .11099243 .27833558 .11199951 .2793274 .116989139 .30133058 .1349945 .37135316 .1539917 .42037965 .18499756 .42037965 .21099854 .42037965 .21099854 .39135743 .21099854 .38035584 .21099854 .36434938 .20799256 .34535218 .20399475 .3293457L.1289978 .029251099C.1269989 .023254395 .12599182 .018249512 .12599182 .015258789 .12599182 .004257202 .13398743-.0107421879 .1539917-.0107421879 .1659851-.0107421879 .18299866-.003753662 .18998719 .015258789L.22999573 .17529297C.23498535 .1973114 .24099732 .2183075 .24598694 .24032593 .25898744 .29133607 .25898744 .29232789 .27598573 .3213501 .2899933 .34535218 .33499146 .42037965 .41099549 .42037965 .45498658 .42037965 .45700074 .3753662 .45700074 .35435487 .45700074 .29232789 .41299439 .17329407 .39898683 .13328552 .38598634 .09927368 .3829956 .090270999 .3829956 .0692749 .3829956 .025253296 .41099549-.0107421879 .45899964-.0107421879 .5519867-.0107421879 .58599856 .1382904 .58599856 .14329529Z"/>
<path id="font_1_7" d="M.5249939 .14329529C.5249939 .1532898 .5169983 .1532898 .5099945 .1532898 .49798585 .1532898 .49699403 .15229798 .4909973 .13027954 .47698976 .07426453 .45799256 .011245728 .42399598 .011245728 .397995 .011245728 .397995 .038253786 .397995 .052261354 .397995 .059265138 .397995 .07527161 .40499879 .103271488L.47299195 .3753662C.47698976 .38935853 .47698976 .39135743 .47698976 .3963623 .47698976 .41737367 .45999146 .42237855 .44999696 .42237855 .41799928 .42237855 .41099549 .3883667 .4099884 .38336183 .3909912 .42637635 .35899354 .4423828 .32699586 .4423828 .21598816 .4423828 .09799194 .29032899 .09799194 .14428711 .09799194 .059265138 .14399719-.0107421879 .21899414-.0107421879 .25498963-.0107421879 .29899598 .010253906 .33898927 .059265138 .34999085 .010253906 .3869934-.0107421879 .42199708-.0107421879 .45899964-.0107421879 .47999574 .014251709 .49499513 .04525757 .5130005 .08326721 .5249939 .14329529 .5249939 .14329529M.34599305 .12428284C.33799745 .0922699 .27598573 .011245728 .22099304 .011245728 .17399597 .011245728 .1659851 .07026672 .1659851 .10028076 .1659851 .15029907 .19699097 .26733399 .21499634 .30934144 .23999024 .37036134 .28599549 .42037965 .32699586 .42037965 .37098695 .42037965 .3959961 .36836244 .3959961 .32633973 .3959961 .32633973 .394989 .31933595 .3929901 .31333924L.34599305 .12428284Z"/>
<path id="font_1_8" d="M.27999879 .14326477C.27999879 .15327454 .27198792 .15327454 .2649994 .15327454 .2599945 .15327454 .2539978 .15327454 .25099183 .14826966L.24398804 .1232605C.22698975 .053253175 .20799256 .011245728 .17999268 .011245728 .1539917 .011245728 .1539917 .038253786 .1539917 .052261354 .1539917 .059249879 .1539917 .07426453 .1599884 .0982666L.30299378 .6693268C.3039856 .67233279 .30599977 .6823273 .30599977 .6823273 .30599977 .69132998 .2999878 .69433596 .2919922 .69433596 .2889862 .69433596 .2789917 .69332888 .27598573 .69233706L.1769867 .6843262C.16499329 .68333438 .1539917 .6823273 .1539917 .6633301 .1539917 .6523285 .1639862 .6523285 .17799378 .6523285 .22599793 .6523285 .22799683 .6453247 .22799683 .6353302 .22799683 .6323242 .22499085 .61831668 .22499085 .61831668L.099990848 .118255618C.09899902 .11425781 .09399414 .09425354 .09399414 .07925415 .09399414 .026245118 .12998963-.0107421879 .17799378-.0107421879 .21598816-.0107421879 .23599243 .01625061 .24899292 .041259767 .2659912 .07626343 .27999879 .14025879 .27999879 .14326477Z"/>
<path id="font_2_1" d=""/>
<path id="font_2_2" d="M.3639984 .38137818C.3639984 .41337586 .33299256 .4423828 .2899933 .4423828 .21699524 .4423828 .18099976 .37538148 .16699219 .3323822V.4423828L.027999878 .43066407V.3996582C.09799194 .3996582 .10598755 .39266969 .10598755 .34370423V.07595825C.10598755 .0309906 .09498596 .0309906 .027999878 .0309906V0L.14199829 .0029907227C.18199158 .0029907227 .22898865 .0029907227 .2689972 0V.0309906H.24798584C.17399597 .0309906 .17199707 .04197693 .17199707 .07795715V.23181153C.17199707 .33137513 .21398926 .42037965 .2899933 .42037965 .29699708 .42037965 .29899598 .42037965 .30099488 .41937257 .2979889 .41838075 .27799989 .40637208 .27799989 .3803711 .27799989 .35237123 .29899598 .33737184 .32099916 .33737184 .33898927 .33737184 .3639984 .3493805 .3639984 .38137818Z"/>
<path id="font_2_3" d="M.4149933 .11933899C.4149933 .12934876 .40699769 .13134766 .4019928 .13134766 .3929901 .13134766 .3909912 .12535095 .3889923 .11734009 .35398866 .014251709 .2639923 .014251709 .2539978 .014251709 .20399475 .014251709 .1639862 .044281007 .14099121 .08131409 .11099243 .12934876 .11099243 .19540406 .11099243 .23144531H.3899994C.4119873 .23144531 .4149933 .23144531 .4149933 .2524414 .4149933 .35131837 .36099244 .4482422 .23599243 .4482422 .11999512 .4482422 .027999878 .34532167 .027999878 .22042847 .027999878 .08631897 .1329956-.0107421879 .24798584-.0107421879 .36999513-.0107421879 .4149933 .10032654 .4149933 .11933899M.34899903 .2524414H.11199951C.117996219 .40126039 .20199585 .426239 .23599243 .426239 .33898927 .426239 .34899903 .2913971 .34899903 .2524414Z"/>
<path id="font_2_4" d="M.4850006 .40411378C.4850006 .42111207 .47299195 .453125 .43399049 .453125 .4139862 .453125 .36999513 .44711305 .32798768 .40611268 .28599549 .43937684 .24398804 .4423828 .22200012 .4423828 .1289978 .4423828 .05999756 .37338258 .05999756 .29638673 .05999756 .25239564 .08198547 .21440125 .10699463 .19340515 .09399414 .17840576 .07598877 .14538574 .07598877 .11035156 .07598877 .07899475 .08898926 .04083252 .11999512 .020828248 .05999756 .003829956 .027999878-.039138795 .027999878-.07911682 .027999878-.15107727 .1269989-.20605469 .24899292-.20605469 .36698915-.20605469 .47099305-.15507508 .47099305-.07711792 .47099305-.042144777 .45700074 .008834839 .4059906 .036834718 .35299684 .064834598 .29499818 .064834598 .23399353 .064834598 .20899964 .064834598 .1659851 .064834598 .15899658 .065841678 .1269989 .069885257 .10598755 .101242069 .10598755 .13334656 .10598755 .13735962 .10598755 .16040039 .12298584 .18040467 .1619873 .15240479 .20298767 .14941406 .22200012 .14941406 .31498719 .14941406 .38398744 .21839905 .38398744 .2953949 .38398744 .3323822 .36799623 .36938478 .34298707 .39237977 .3789978 .42637635 .4149933 .43138124 .43299867 .43138124 .43299867 .43112184 .43998719 .43112184 .44299317 .43011476 .43199159 .42611695 .4269867 .41513063 .4269867 .40315248 .4269867 .38616944 .43998719 .37417604 .45599366 .37417604 .46598817 .37417604 .4850006 .3811798 .4850006 .4041443V.40411378M.30899049 .29626466C.30899049 .26930238 .30799867 .2373352 .29299928 .21235657 .2849884 .20037842 .2619934 .17240906 .22200012 .17240906 .1349945 .17240906 .1349945 .2722931 .1349945 .29527284 .1349945 .3222351 .13598633 .35420228 .15098572 .3791809 .15899658 .3913269 .18199158 .41937257 .22200012 .41937257 .30899049 .41937257 .30899049 .31922914 .30899049 .29618836V.29626466M.4189911-.07911682C.4189911-.13308716 .34799195-.18305969 .25-.18305969 .14898682-.18305969 .07998657-.13209534 .07998657-.07911682 .07998657-.03314209 .117996219 .003829956 .1619873 .0068359377H.22099304C.30699159 .0068359377 .4189911 .0068359377 .4189911-.07911682Z"/>
<path id="font_2_5" d="M.33198548 .12385559V.18066406H.30699159V.12585449C.30699159 .052108766 .2769928 .014251709 .23999024 .014251709 .17298889 .014251709 .17298889 .10491943 .17298889 .12187195V.3996582H.31599427V.43066407H.17298889V.6142578H.147995C.14698792 .5324249 .116989139 .42565919 .018997193 .42166139V.3996582H.10398865V.12408447C.10398865 .0012512207 .19699097-.0107421879 .23298645-.0107421879 .3039856-.0107421879 .33198548 .060180665 .33198548 .12408447V.12385559Z"/>
<path id="font_2_6" d="M.8129883 0V.0309906C.7609863 .0309906 .73599246 .0309906 .7350006 .061019899V.25221253C.7350006 .3383026 .7350006 .36932374 .70399478 .405365 .6899872 .42237855 .6569977 .4423828 .598999 .4423828 .5149994 .4423828 .47099305 .38233949 .45399476 .34429933 .43998719 .43138124 .3659973 .4423828 .32099916 .4423828 .24798584 .4423828 .20098877 .39935304 .17298889 .33729554V.4423828L.03199768 .43066407V.3996582C.101989749 .3996582 .10998535 .39266969 .10998535 .34370423V.07595825C.10998535 .0309906 .09899902 .0309906 .03199768 .0309906V0L.14498902 .0029907227 .25698854 0V.0309906C.18998719 .0309906 .1789856 .0309906 .1789856 .07595825V.25978089C.1789856 .36431886 .25 .42037965 .31399537 .42037965 .3769989 .42037965 .3880005 .36631776 .3880005 .30926515V.076034549C.3880005 .0309906 .3769989 .0309906 .30999757 .0309906V0L.4229889 .0029907227 .5349884 0V.0309906C.46798707 .0309906 .45700074 .0309906 .45700074 .076034549V.2602234C.45700074 .36431886 .5279999 .42037965 .59199526 .42037965 .6549988 .42037965 .66600039 .36631776 .66600039 .30926515V.076034549C.66600039 .0309906 .6549988 .0309906 .58799746 .0309906V0L.70098879 .0029907227 .8129883 0Z"/>
<path id="font_2_7" d="M.24699402 0V.0309906C.18099976 .0309906 .1769867 .035995485 .1769867 .075042728V.4423828L.036987306 .43066407V.3996582C.101989749 .3996582 .11099243 .3936615 .11099243 .3447113V.07595825C.11099243 .0309906 .099990848 .0309906 .032989503 .0309906V0L.14299011 .0029907227C.17799378 .0029907227 .21299744 .0009918213 .24699402 0M.19198609 .603775C.19198609 .6307678 .16899109 .6567688 .13899231 .6567688 .10499573 .6567688 .084991458 .6287689 .084991458 .603775 .084991458 .57676699 .10798645 .55078127 .13798523 .55078127 .17199707 .55078127 .19198609 .5787811 .19198609 .603775Z"/>
<path id="font_2_8" d="M.5349884 0V.0309906C.48298646 .0309906 .45799256 .0309906 .45700074 .061019899V.25221253C.45700074 .3383026 .45700074 .36932374 .42599488 .405365 .4119873 .42237855 .3789978 .4423828 .32099916 .4423828 .24798584 .4423828 .20098877 .39935304 .17298889 .33729554V.4423828L.03199768 .43066407V.3996582C.101989749 .3996582 .10998535 .39266969 .10998535 .34370423V.07595825C.10998535 .0309906 .09899902 .0309906 .03199768 .0309906V0L.14498902 .0029907227 .25698854 0V.0309906C.18998719 .0309906 .1789856 .0309906 .1789856 .07595825V.25978089C.1789856 .36431886 .25 .42037965 .31399537 .42037965 .3769989 .42037965 .3880005 .36631776 .3880005 .30926515V.076034549C.3880005 .0309906 .3769989 .0309906 .30999757 .0309906V0L.4229889 .0029907227 .5349884 0Z"/>
<path id="font_2_9" d="M.19198609 .052993776C.19198609 .08198547 .16799927 .10598755 .13899231 .10598755 .10998535 .10598755 .085998538 .08198547 .085998538 .052993776 .085998538 .023986817 .10998535 0 .13899231 0 .16799927 0 .19198609 .023986817 .19198609 .052993776Z"/>
<path id="font_2_10" d="M.35699464 .63479617C.35699464 .6717987 .31999208 .7050781 .2669983 .7050781 .19699097 .7050781 .11199951 .65179446 .11199951 .5457611V.43066407H.032989503V.3996582H.11199951V.07595825C.11199951 .0309906 .100997928 .0309906 .033996583 .0309906V0L.147995 .0029907227C.18798828 .0029907227 .23498535 .0029907227 .2749939 0V.0309906H.2539978C.17999268 .0309906 .17799378 .04197693 .17799378 .07795715V.3996582H.2919922V.43066407H.1749878V.5467529C.1749878 .63479617 .22299195 .68307498 .2669983 .68307498 .269989 .68307498 .2849884 .68307498 .2999878 .675827 .28799439 .6717987 .269989 .6587982 .269989 .6338043 .269989 .61079409 .28599549 .5907898 .31298829 .5907898 .34199525 .5907898 .35699464 .61079409 .35699464 .63479617Z"/>
<path id="font_2_11" d="M.47099305 .21424866C.47099305 .34223939 .37098695 .4482422 .25 .4482422 .125 .4482422 .027999878 .3392334 .027999878 .21424866 .027999878 .085250858 .13198853-.0107421879 .24899292-.0107421879 .36999513-.0107421879 .47099305 .087249759 .47099305 .21424866M.3880005 .22224427C.3880005 .18624878 .3880005 .13224793 .3659973 .08824158 .34399415 .04324341 .2999878 .014251709 .25 .014251709 .20698548 .014251709 .16299439 .035247804 .13598633 .08125305 .11099243 .12524414 .11099243 .18624878 .11099243 .22224427 .11099243 .26124574 .11099243 .31523133 .1349945 .35923768 .1619873 .40522767 .20899964 .426239 .24899292 .426239 .29299928 .426239 .33599855 .40423585 .3619995 .36123658 .3880005 .3182373 .3880005 .26023866 .3880005 .22224427Z"/>
<path id="font_3_1" d="M.7589874 0C.776001 0 .7849884 .0039978029 .7849884 .0129852299L.44499208 .69599917C.43798829 .70899966 .42900086 .71598818 .41600038 .71598818 .40299989 .71598818 .3939972 .70899966 .3869934 .69599917L.051986696 .024993897C.04899597 .017990113 .04699707 .01399231 .04699707 .011993408 .04699707 .0039978029 .055999757 0 .07299805 0H.7589874M.38398744 .60398867 .6439972 .08299255H.12399292L.38398744 .60398867Z"/>
<path id="font_3_2" d="M.1639862 .44140626C.1309967 .44140626 .10398865 .42340089 .08299255 .38638307 .068984989 .3613739 .057998659 .33537293 .050994874 .3063507 .04798889 .29534913 .04699707 .28935243 .04699707 .28733827 .04699707 .27633668 .053985597 .27033998 .067993167 .27033998 .08699036 .27033998 .08799744 .28134156 .09298706 .3023529 .10998535 .37138368 .1329956 .4064026 .1619873 .4064026 .18099976 .4064026 .18998719 .39138795 .18998719 .3613739 .18998719 .3503723 .18499756 .32435609 .17399597 .28134156L.12098694 .06724548C.11399841 .040237428 .11099243 .026229859 .11099243 .025222779 .11099243 .0022277833 .12399292-.009765625 .14898682-.009765625 .16799927-.009765625 .18199158-.0017700195 .19099427 .014221191 .19400025 .020233155 .19999695 .041229249 .20899964 .07624817L.22999573 .16429138C.24198914 .21130371 .24899292 .23731995 .25099183 .24333191 .25898744 .2693329 .2709961 .29434205 .28799439 .3173523 .32998658 .37638856 .37799073 .4064026 .43299867 .4064026 .46899415 .4064026 .4869995 .38438417 .4869995 .34136964 .4869995 .3023529 .46798707 .23332215 .42900086 .13327027 .4189911 .10726929 .4139862 .08924866 .4139862 .07824707 .4139862 .024230957 .45799256-.009765625 .5119934-.009765625 .5589905-.009765625 .5970001 .014221191 .6239929 .0622406 .6469879 .103256229 .6579895 .13027954 .6579895 .14428711 .6579895 .1552887 .651001 .1612854 .6380005 .1612854 .6309967 .16029358 .6239929 .1552887 .61698916 .14527893 .6159973 .14428711 .6159973 .14227295 .6159973 .14128113 .59298709 .0642395 .5589905 .025222779 .5149994 .025222779 .5009918 .025222779 .49398805 .035232545 .49398805 .056243898 .49398805 .070251468 .5019989 .09625244 .5169983 .13427735 .5519867 .22331238 .56900027 .28733827 .56900027 .32536317 .56900027 .37138368 .5529938 .4033966 .5219879 .4203949 .49699403 .43440248 .46798707 .44140626 .43699647 .44140626 .37199403 .44140626 .31698609 .4133911 .272995 .3573761 .2639923 .4064026 .22099304 .44140626 .1639862 .44140626Z"/>
<path id="font_2_12" d="M.71699526 0V.0309906H.69898989C.6389923 .0309906 .625 .037979127 .6139984 .07095337L.397995 .6958008C.3929901 .7088165 .3909912 .7158203 .375 .7158203 .35899354 .7158203 .35598756 .70980837 .35099793 .6958008L.14399719 .09791565C.12599182 .04698181 .085998538 .03199768 .03199768 .0309906V0L.13398743 .0029907227 .24899292 0V.0309906C.19898987 .0309906 .17399597 .05596924 .17399597 .0819397 .17399597 .08493042 .1749878 .09492493 .17599488 .09692383L.22200012 .2277832H.46899415L.5219879 .07495117C.522995 .07095337 .5249939 .064956668 .5249939 .060958864 .5249939 .0309906 .46899415 .0309906 .44198609 .0309906V0C.47799684 .0029907227 .5479889 .0029907227 .58599856 .0029907227L.71699526 0M.45799256 .25878907H.23298645L.34498597 .58380129 .45799256 .25878907Z"/>
<path id="font_2_13" d="M.3600006 .12823487C.3600006 .18122864 .32998658 .21122742 .31799317 .22323609 .2849884 .25523377 .24598694 .26322938 .20399475 .27124024 .147995 .28224183 .08099365 .29522706 .08099365 .35324098 .08099365 .38822938 .10699463 .42922975 .19299317 .42922975 .30299378 .42922975 .30799867 .3392334 .30999757 .30822755 .31098939 .2992401 .32199098 .2992401 .32199098 .2992401 .33499146 .2992401 .33499146 .30422975 .33499146 .32322694V.4242401C.33499146 .4412384 .33499146 .4482422 .32398988 .4482422 .31900025 .4482422 .31698609 .4482422 .3039856 .43623353 .30099488 .43223573 .29100038 .42323304 .2869873 .42022706 .24899292 .4482422 .20799256 .4482422 .19299317 .4482422 .070999149 .4482422 .032989503 .38124085 .032989503 .3252411 .032989503 .29023744 .04899597 .26223756 .07598877 .24023438 .10798645 .2142334 .13598633 .2082367 .20799256 .19422913 .22999573 .19021607 .31199647 .17422486 .31199647 .10221863 .31199647 .051223756 .2769928 .011245728 .19898987 .011245728 .114990238 .011245728 .07899475 .068222049 .05999756 .1532135 .056991579 .16621399 .055999757 .17021179 .04598999 .17021179 .032989503 .17021179 .032989503 .16322327 .032989503 .1452179V.013214111C.032989503-.003753662 .032989503-.0107421879 .04399109-.0107421879 .04899597-.0107421879 .049987794-.009750366 .068984989 .009246826 .070999149 .011245728 .070999149 .013214111 .08898926 .032226564 .1329956-.009750366 .17799378-.0107421879 .19898987-.0107421879 .31399537-.0107421879 .3600006 .05621338 .3600006 .1282196V.12823487Z"/>
<path id="font_2_14" d="M.5209961 .2163086C.5209961 .34335328 .4229889 .4423828 .30899049 .4423828 .23098755 .4423828 .18798828 .39537049 .17199707 .3773651V.69433596L.027999878 .68333438V.6523285C.09799194 .6523285 .10598755 .6453247 .10598755 .596344V.00024414063H.1309967L.16699219 .06227112C.18199158 .039260866 .22399903-.0107421879 .2979889-.0107421879 .4169922-.0107421879 .5209961 .08728027 .5209961 .2163086M.43798829 .21731568C.43798829 .18029785 .43598939 .120285037 .40699769 .07527161 .38598634 .044265748 .34799195 .011245728 .2939911 .011245728 .24899292 .011260986 .21299744 .03526306 .18899536 .072265628 .1749878 .09326172 .1749878 .09625244 .1749878 .11425781V.32034303C.1749878 .3393402 .1749878 .3403473 .18598938 .35635377 .22499085 .41236878 .27999879 .42037965 .3039856 .42037965 .34899903 .42037965 .3849945 .3943634 .40899659 .35635377 .43499757 .31533814 .43798829 .25831605 .43798829 .21730042V.21731568Z"/>
<path id="font_2_15" d="M.25498963 0V.0309906C.18798828 .0309906 .1769867 .0309906 .1769867 .07601929V.69433596L.032989503 .6826172V.6516113C.102996829 .6516113 .11099243 .64460757 .11099243 .5956421V.07595825C.11099243 .0309906 .099990848 .0309906 .032989503 .0309906V0L.14399719 .0029907227 .25498963 0Z"/>
<path id="font_3_3" d="M.5549927 .6826172H.23498535C.21199036 .6826172 .20098877 .6816101 .20098877 .65960696 .20098877 .64860537 .21199036 .6436157 .23399353 .6436157 .2539978 .6436157 .2939911 .64660647 .2939911 .63061526 .2939911 .62861636 .29299928 .6226196 .2899933 .61260989L.1579895 .0819397C.1519928 .05996704 .14199829 .04698181 .12799073 .041992189 .12098694 .039993287 .102996829 .038986207 .07199097 .038986207 .049987794 .038986207 .039993287 .036987306 .039993287 .015991211 .039993287 .004989624 .04598999 0 .05899048 0L.18399048 .0029907227 .24798584 .0019989014C.25898744 .0019989014 .29899598 0 .31199647 0 .32798768 0 .33599855 .0079956059 .33599855 .023986817 .33599855 .033996583 .32499696 .038986207 .3039856 .038986207 .2639923 .038986207 .24398804 .04298401 .24398804 .051971437 .24398804 .051971437 .24499512 .054977418 .24699402 .06796265L.30699159 .31169129H.47200013C.5369873 .31169129 .598999 .33169557 .6569977 .37068177 .7220001 .41368104 .7539978 .46665956 .7539978 .5296478 .7539978 .62861636 .6599884 .6826172 .5549927 .6826172M.5239868 .6436157C.61099246 .6436157 .6539917 .61361697 .6539917 .55363467 .6539917 .49765016 .6259918 .42266847 .5970001 .39668275 .5589905 .36268617 .5089874 .34570313 .44699098 .34570313H.31298829L.3789978 .60961917C.3869934 .6436157 .3869934 .6436157 .42900086 .6436157H.5239868Z"/>
<path id="font_3_4" d="M.31799317-.2480011C.32699586-.2480011 .33198548-.24301148 .33198548-.23400879 .33198548-.23100281 .32998658-.227005 .32699586-.2230072 .2749939-.18301392 .23298645-.117004398 .20199585-.026000977 .1749878 .052993776 .16099549 .1309967 .16099549 .20799256V.2919922C.16099549 .36898805 .1749878 .44699098 .20199585 .526001 .23298645 .61698916 .2749939 .68299868 .32699586 .72299197 .32998658 .7259979 .33198548 .7299957 .33198548 .73399356 .33198548 .7429962 .32699586 .7480011 .31799317 .7480011 .31698609 .7480011 .31399537 .746994 .31098939 .7449951 .25099183 .69898989 .20098877 .6309967 .1599884 .5399933 .12098694 .45298768 .100997928 .37098695 .100997928 .2919922V.20799256C.100997928 .1289978 .12098694 .04699707 .1599884-.040008546 .20098877-.13101197 .25099183-.19900513 .31098939-.24501038 .31399537-.24700928 .31698609-.2480011 .31799317-.2480011Z"/>
<path id="font_3_5" d="M.37998963 .41560365C.37998963 .42660523 .36898805 .4326172 .34700013 .4326172H.25898744L.2939911 .5746155C.2939911 .5766144 .29699708 .5866089 .29699708 .5886078 .29699708 .61260989 .2849884 .6246033 .2599945 .6246033 .22999573 .6246033 .21299744 .5996094 .20599365 .5656128L.17399597 .4326172H.07699585C.053985597 .4326172 .041992189 .4296112 .041992189 .40760804 .041992189 .39561463 .052993776 .38960267 .07499695 .38960267H.16299439L.10699463 .16200257C.09700012 .12207031 .09199524 .09710693 .09199524 .08811951 .09199524 .029220581 .14099121-.009765625 .19999695-.009765625 .25099183-.009765625 .29499818 .014221191 .32998658 .06317139 .35899354 .10409546 .37399293 .13104248 .37399293 .14501953 .37399293 .15600586 .36799623 .16200257 .35499574 .16200257 .34999085 .16200257 .34599305 .16099549 .34298707 .16000366 .33699037 .15301514 .33299256 .14602661 .33099366 .14103699 .30899049 .09211731 .2630005 .026229859 .20298767 .026229859 .18299866 .026229859 .17298889 .04119873 .17298889 .07014465 .17298889 .08113098 .1749878 .09411621 .1789856 .110076908L.24798584 .38960267H.34498597C.36799623 .38960267 .37998963 .39460755 .37998963 .41560365Z"/>
<path id="font_3_6" d="M.07798767-.24501038C.13798523-.19900513 .18798828-.13101197 .22898865-.040008546 .2679901 .04699707 .28799439 .1289978 .28799439 .20799256V.2919922C.28799439 .37098695 .2679901 .45298768 .22898865 .5399933 .18798828 .6309967 .13798523 .69898989 .07798767 .7449951 .07499695 .746994 .07199097 .7480011 .070999149 .7480011 .06199646 .7480011 .056991579 .7429962 .056991579 .73399356 .056991579 .7299957 .05899048 .7259979 .06199646 .72299197 .11399841 .68299868 .1559906 .61698916 .18699646 .526001 .21398926 .44699098 .22799683 .36898805 .22799683 .2919922V.20799256C.22799683 .1309967 .21398926 .052993776 .18699646-.026000977 .1559906-.117004398 .11399841-.18301392 .06199646-.2230072 .05899048-.227005 .056991579-.23100281 .056991579-.23400879 .056991579-.24301148 .06199646-.2480011 .070999149-.2480011 .07199097-.2480011 .07499695-.24700928 .07798767-.24501038Z"/>
<path id="font_3_7" d="M.35499574 .4423828C.31098939 .4423828 .2689972 .41937257 .22799683 .3733673 .21699524 .41937257 .18598938 .4423828 .13699341 .4423828 .09599304 .4423828 .06599426 .40937806 .04499817 .34436036 .034988405 .3113556 .02999878 .2923584 .02999878 .28634645 .02999878 .27734376 .034988405 .27235414 .04598999 .27235414 .050994874 .27235414 .053985597 .27334596 .056991579 .27534486 .06199646 .28434754 .06498718 .29135133 .06599426 .2983551 .083999637 .3743744 .10699463 .41236878 .13398743 .41236878 .1519928 .41236878 .16099549 .39837647 .16099549 .3713684 .16099549 .35636903 .15899658 .33935548 .1539917 .3213501L.04399109-.1174469C.034988405-.15037537 .033996583-.15437317-.005004883-.15437317-.023010254-.15437317-.03201294-.16236878-.03201294-.17736817-.03201294-.18836975-.026000977-.19335938-.015014648-.19335938 0-.19335938 .051986696-.19036865 .066986087-.19036865 .085998538-.19036865 .1459961-.19335938 .16499329-.19335938 .17999268-.19335938 .18699646-.18536377 .18699646-.16937256 .18699646-.1593628 .17799378-.15437317 .15899658-.15437317 .14099121-.15437317 .11399841-.15536499 .11399841-.14338684 .11399841-.13041687 .15499878 .026306153 .15899658 .043304445 .1789856 .00630188 .20899964-.0126953129 .24899292-.0126953129 .31399537-.0126953129 .37098695 .02029419 .42099 .08731079 .46699525 .14831543 .48999024 .21333313 .48999024 .28034974 .48999024 .3673706 .43798829 .4423828 .35499574 .4423828M.35198976 .41236878C.3909912 .41236878 .41099549 .38237 .41099549 .32336427 .41099549 .2963562 .40499879 .26034547 .3939972 .21533203 .37098695 .12832642 .34199525 .07130432 .30699159 .042297365 .28599549 .025299073 .2669983 .016296387 .24798584 .016296387 .21899414 .016296387 .19898987 .029296875 .18798828 .05630493 .1789856 .077316287 .17399597 .092315677 .17399597 .10031128L.22499085 .3093567C.22999573 .33135987 .24798584 .35437013 .27598573 .3773651 .3039856 .40037538 .32899476 .41236878 .35198976 .41236878Z"/>
<path id="font_3_8" d="M.30299378 .66363528C.2599945 .6216278 .19599915 .6006317 .10899353 .6006317V.5566406C.16799927 .5566406 .21499634 .56562808 .25099183 .58262637V.08496094C.25099183 .07197571 .25 .0639801 .24699402 .0599823 .24198914 .048980714 .21199036 .042999269 .15699768 .042999269H.115997318V0L.2939911 .0039978029 .47299195 0V.042999269H.43199159C.3769989 .042999269 .34700013 .048980714 .34098817 .0599823 .33898927 .0639801 .33799745 .07197571 .33799745 .08496094V.6316376C.33799745 .6586304 .33399964 .66363528 .30299378 .66363528Z"/>
<path id="font_3_9" d="M.13899231-.25001527C.1519928-.25001527 .15899658-.2420044 .15899658-.22601319V.7259979C.15899658 .74198916 .1519928 .75 .13899231 .75 .12599182 .75 .11898804 .74198916 .11898804 .7259979V-.22601319C.11898804-.2420044 .12599182-.25001527 .13899231-.25001527Z"/>
<path id="font_3_10" d="M.7200012 .2502594C.7200012 .28025819 .69400027 .30325318 .6639862 .30325318 .6329956 .30325318 .6069946 .28025819 .6069946 .2502594 .6069946 .22026062 .6329956 .19726563 .6639862 .19726563 .69400027 .19726563 .7200012 .22026062 .7200012 .2502594M.44400025 .2502594C.44400025 .28025819 .41799928 .30325318 .3880005 .30325318 .35699464 .30325318 .33198548 .28025819 .33198548 .2502594 .33198548 .22026062 .35699464 .19726563 .3880005 .19726563 .41799928 .19726563 .44400025 .22026062 .44400025 .2502594M.16899109 .2502594C.16899109 .28025819 .14299011 .30325318 .11199951 .30325318 .08198547 .30325318 .055999757 .28025819 .055999757 .2502594 .055999757 .22026062 .08198547 .19726563 .11199951 .19726563 .14199829 .19726563 .16899109 .22026062 .16899109 .2502594Z"/>
<path id="font_2_16" d="M.6100006 .45477296 .58200076 .6796875H.032989503V.64868167H.056991579C.13398743 .64868167 .13598633 .63768008 .13598633 .6016998V.07797241C.13598633 .041992189 .13398743 .0309906 .056991579 .0309906H.032989503V0C.067993167 .0029907227 .1459961 .0029907227 .18499756 .0029907227 .22599793 .0029907227 .31698609 .0029907227 .35299684 0V.0309906H.31999208C.22499085 .031188965 .22499085 .044189454 .22499085 .079193118V.3251953H.31098939C.40699769 .3251953 .4169922 .29318238 .4169922 .20819092H.44198609V.4731903H.4169922C.4169922 .38919068 .40699769 .3561859 .31098939 .3561859H.22499085V.6091919C.22499085 .64167788 .22698975 .64868167 .27398683 .64868167H.3939972C.5439911 .64868167 .56900027 .5926819 .58499148 .4546814L.6100006 .45477296Z"/>
<path id="font_2_17" d="M.5159912 0V.0309906C.46199037 .03125 .44400025 .0332489 .42099 .0622406L.2869873 .23493958C.31698609 .27287293 .35499574 .3217926 .3789978 .3477478 .4099884 .38368226 .45098878 .39866639 .49798585 .3996582V.43066407C.47200013 .4286499 .44198609 .42765809 .41600038 .42765809 .38598634 .42765809 .33299256 .42965699 .31999208 .43066407V.3996582C.34098817 .3973999 .34899903 .3843994 .34899903 .3684082 .34899903 .35240174 .33898927 .33940126 .33399964 .33340455L.27198792 .2554016 .19400025 .35639955C.18499756 .3664093 .18499756 .3684082 .18499756 .3744049 .18499756 .3894043 .19999695 .39840699 .21998596 .39941407V.43066407L.11199951 .42765809C.09098816 .42765809 .04399109 .4286499 .016998291 .43066407V.3996582C.08699036 .3996582 .08799744 .39865113 .1349945 .3387146L.23399353 .20982361C.18699646 .14988709 .18699646 .14788819 .13999939 .09094238 .09199524 .032989503 .032989503 .0309906 .011993408 .0309906V0C.037994386 .0019989014 .068984989 .0029907227 .09498596 .0029907227L.18998719 0V.0309906C.16799927 .034240724 .16099549 .04724121 .16099549 .0622406 .16099549 .084243778 .18998719 .117248538 .25099183 .1892395L.32699586 .08924866C.33499146 .07824707 .34799195 .0622406 .34799195 .056243898 .34799195 .04724121 .33898927 .03224182 .31199647 .03125V0L.41999818 .0029907227C.44699098 .0029907227 .48599244 .0019989014 .5159912 0Z"/>
<path id="font_2_18" d="M.5269928 0V.0309906C.45700074 .0309906 .44898988 .038009645 .44898988 .0871582V.69433596L.30499269 .6826172V.6516113C.375 .6516113 .3829956 .64463809 .3829956 .59580996V.38035584C.35398866 .41636659 .31098939 .4423828 .25698854 .4423828 .13899231 .4423828 .033996583 .3443451 .033996583 .21531677 .033996583 .088272098 .13198853-.0107421879 .24598694-.0107421879 .30999757-.0107421879 .35499574 .023254395 .37998963 .055267335V-.0107421879L.5269928 0M.37998963 .117996219C.37998963 .099990848 .37998963 .09799194 .36898805 .08099365 .33898927 .033218385 .2939911 .011245728 .25099183 .011245728 .20599365 .011245728 .16999817 .037216188 .1459961 .075164798 .11999512 .1161499 .116989139 .17320252 .116989139 .21421814 .116989139 .25125123 .11898804 .31129457 .147995 .35632325 .16899109 .38734437 .20698548 .42037965 .26098634 .42037965 .29599 .42037965 .33799745 .405365 .36898805 .3603363 .37998963 .34332276 .37998963 .34132386 .37998963 .32330323V.117996219Z"/>
<path id="font_2_19" d="M.5209961 .21636963C.5209961 .34336854 .42399598 .4423828 .31199647 .4423828 .23399353 .4423828 .19198609 .39837647 .17199707 .3763733V.4423828L.027999878 .43066407V.3996582C.09899902 .3996582 .10598755 .3936615 .10598755 .34973146V-.117996219C.10598755-.16308594 .09498596-.16308594 .027999878-.16308594V-.1940918L.13999939-.19110108 .25299073-.1940918V-.16308594C.18598938-.16308594 .1749878-.16308594 .1749878-.117996219V.050186159 .059173585C.17999268 .04319763 .22200012-.0107421879 .2979889-.0107421879 .4169922-.0107421879 .5209961 .087127689 .5209961 .21594239V.21636963M.43798829 .21594239C.43798829 .09512329 .36799623 .011245728 .2939911 .011245728 .2539978 .011245728 .21598816 .031219483 .18899536 .07215881 .1749878 .09312439 .1749878 .09411621 .1749878 .114089969V.33674623C.20399475 .38838197 .25299073 .41737367 .3039856 .41737367 .3769989 .41737367 .43798829 .32937623 .43798829 .21636963V.21594239Z"/>
<path id="font_3_11" d="M.5269928 .3733673C.5269928 .41937257 .48199464 .4423828 .43199159 .4423828 .3889923 .4423828 .35499574 .41937257 .32899476 .3733673 .30799867 .41937257 .272995 .4423828 .22200012 .4423828 .17298889 .4423828 .1329956 .41937257 .100997928 .37435914 .07398987 .33535768 .05999756 .30633546 .05999756 .28733827 .05999756 .27833558 .06498718 .2733307 .07499695 .2733307 .083999637 .2733307 .08999634 .27833558 .09199524 .28733827 .11099243 .34535218 .15299988 .41337586 .21998596 .41337586 .25299073 .41337586 .2689972 .3923645 .2689972 .35134889 .2689972 .33035279 .25099183 .25231935 .21598816 .11828613 .19898987 .051254274 .16899109 .018249512 .12599182 .018249512 .11199951 .018249512 .09899902 .021255494 .08799744 .026260376 .11399841 .036254884 .1269989 .054260255 .1269989 .08027649 .1269989 .106277469 .11399841 .119277957 .08699036 .119277957 .053985597 .119277957 .0289917 .091278079 .0289917 .058258058 .0289917 .012252808 .07598877-.0107421879 .125-.0107421879 .16699219-.0107421879 .20098877 .012252808 .22799683 .058258058 .24699402 .012252808 .2829895-.0107421879 .33499146-.0107421879 .3829956-.0107421879 .4229889 .012252808 .45498658 .057266237 .48199464 .0962677 .49598695 .12528992 .49598695 .14428711 .49598695 .1532898 .4909973 .15829468 .48098756 .15829468 .47200013 .15829468 .46699525 .1532898 .46398927 .14428711 .44699098 .087265018 .4019928 .018249512 .33699037 .018249512 .3039856 .018249512 .2869873 .038253786 .2869873 .07926941 .2869873 .0922699 .2919922 .120285037 .30299378 .16529846L.33699037 .30033876C.35598756 .3753662 .3869934 .41337586 .43099977 .41337586 .44499208 .41337586 .45799256 .41036988 .46899415 .405365 .44198609 .3963623 .42900086 .37835694 .42900086 .35134889 .42900086 .3253479 .44299317 .3123474 .46998597 .3123474 .5019989 .3123474 .5269928 .34135438 .5269928 .3733673Z"/>
<path id="font_3_12" d="M.69799807 .3671875H.07998657C.06399536 .3671875 .055999757 .35917665 .055999757 .34417726 .055999757 .32917787 .06399536 .32118226 .07998657 .32118226H.69799807C.71398928 .32118226 .7220001 .32917787 .7220001 .34417726 .7220001 .3561859 .71099856 .3671875 .69799807 .3671875M.69799807 .17880249H.07998657C.06399536 .17880249 .055999757 .17080689 .055999757 .1558075 .055999757 .1408081 .06399536 .1328125 .07998657 .1328125H.69799807C.71398928 .1328125 .7220001 .1408081 .7220001 .1558075 .7220001 .16880799 .71099856 .17880249 .69799807 .17880249Z"/>
<path id="font_2_20" d="M.651001 .18289185C.651001 .26983644 .56900027 .34480287 .45799256 .35679627 .5549927 .3757782 .6239929 .43974305 .6239929 .51368716 .6239929 .6006317 .5319977 .6826172 .4019928 .6826172H.035995485V.6516113H.05999756C.13699341 .6516113 .13899231 .64060977 .13899231 .6046295V.07795715C.13899231 .041992189 .13699341 .0309906 .05999756 .0309906H.035995485V0H.42799378C.5609894 0 .651001 .08895874 .651001 .18289185M.5269928 .51368716C.5269928 .44973756 .47799684 .3657837 .36698915 .3657837H.22200012V.6116333C.22200012 .64460757 .22399903 .6516113 .2709961 .6516113H.394989C.49198915 .6516113 .5269928 .56666567 .5269928 .51368716M.5509949 .18389893C.5509949 .11294556 .49899293 .0309906 .3959961 .0309906H.2709961C.22399903 .0309906 .22200012 .037994386 .22200012 .07096863V.34379579H.4099884C.5089874 .34379579 .5509949 .2508545 .5509949 .18389893Z"/>
<path id="font_2_21" d="M.5349884 0V.0309906C.46499635 .0309906 .45700074 .037994386 .45700074 .08705139V.4423828L.30999757 .43066407V.3996582C.37998963 .3996582 .3880005 .39266969 .3880005 .34373475V.16601563C.3880005 .07910156 .33999635 .011245728 .2669983 .011245728 .18299866 .011245728 .1789856 .058135988 .1789856 .11009216V.4423828L.03199768 .43066407V.3996582C.10998535 .3996582 .10998535 .39666749 .10998535 .3078003V.15802002C.10998535 .080093387 .10998535-.0107421879 .2619934-.0107421879 .31799317-.0107421879 .3619995 .017242432 .3909912 .07910156V-.0107421879L.5349884 0Z"/>
<path id="font_2_22" d="M.27598573 .18710327V.24511719H.010986328V.18710327H.27598573Z"/>
<path id="font_2_23" d="M.8789978 0V.0309906H.8549957C.7779999 .0309906 .776001 .041992189 .776001 .07795715V.6046295C.776001 .64060977 .7779999 .6516113 .8549957 .6516113H.8789978V.6826172H.70999148C.6839905 .6826172 .6839905 .6816101 .6769867 .66360476L.45799256 .10095215 .24099732 .660614C.23199463 .6826172 .22898865 .6826172 .20599365 .6826172H.036987306V.6516113H.06098938C.13798523 .6516113 .13999939 .64060977 .13999939 .6046295V.10494995C.13999939 .07795715 .13999939 .0309906 .036987306 .0309906V0L.1539917 .0029907227 .2709961 0V.0309906C.16799927 .0309906 .16799927 .07795715 .16799927 .10494995V.6436157H.16899109L.4099884 .021987915C.4149933 .008987427 .41999818 0 .42999269 0 .44099427 0 .44400025 .0079956059 .44799806 .018997193L.69400027 .6516113H.69499209V.07795715C.69499209 .041992189 .69299319 .0309906 .6159973 .0309906H.59199526V0C.6289978 .0029907227 .69699099 .0029907227 .73599246 .0029907227 .7749939 .0029907227 .84199526 .0029907227 .8789978 0Z"/>
<path id="font_2_24" d="M.48298646 .08912659V.14511109H.45799256V.08912659C.45799256 .03112793 .43299867 .025131226 .42199708 .025131226 .3889923 .025131226 .3849945 .070129398 .3849945 .07511902V.27508546C.3849945 .31707765 .3849945 .3560791 .34899903 .39312745 .30999757 .43223573 .2599945 .4482422 .21199036 .4482422 .12998963 .4482422 .06098938 .40115357 .06098938 .335083 .06098938 .30508424 .08099365 .28808595 .10699463 .28808595 .1349945 .28808595 .15299988 .30807496 .15299988 .33407594 .15299988 .3460846 .147995 .37908937 .101989749 .38008119 .1289978 .41519166 .17799378 .426239 .20999146 .426239 .25898744 .426239 .31599427 .38710023 .31599427 .29808045V.26107789C.2649994 .25808717 .19499207 .25508119 .13198853 .22509766 .056991579 .19110108 .03199768 .13911438 .03199768 .09512329 .03199768 .014251709 .1289978-.0107421879 .19198609-.0107421879 .2579956-.0107421879 .3039856 .029251099 .32299806 .07624817 .32699586 .036132814 .35398866-.005859375 .40098573-.005859375 .42199708-.005859375 .48298646 .008132935 .48298646 .08912659M.31599427 .14013672C.31599427 .04525757 .24398804 .011245728 .19898987 .011245728 .1499939 .011245728 .10899353 .04624939 .10899353 .09625244 .10899353 .15124512 .15098572 .23425293 .31599427 .24024964V.14013672Z"/>
<path id="font_2_25" d="M.084991458 .6403351C.084991458 .6293335 .09298706 .58732607 .13798523 .58732607 .15899658 .58732607 .16799927 .59632876 .18199158 .6073303 .18399048 .59732058 .18399048 .59832766 .18099976 .55633547 .17399597 .514328 .1579895 .47633363 .1309967 .44232179 .11199951 .41833497 .099990848 .41333009 .099990848 .40533448 .099990848 .4003296 .10699463 .3933258 .11199951 .3933258 .115997318 .3933258 .12199402 .3983307 .1329956 .40933229 .18099976 .46232606 .20599365 .5223236 .20599365 .58932498 .20599365 .6523285 .1789856 .69433596 .13899231 .69433596 .10699463 .69433596 .084991458 .67033389 .084991458 .6403351Z"/>
<path id="font_2_26" d="M.7029877 .3996582V.43066407C.68099978 .4286499 .6519928 .42765809 .6299896 .42765809L.5369873 .43066407V.3996582C.57299807 .39866639 .59498599 .38075257 .59498599 .35176087 .59498599 .34576417 .59498599 .34376527 .58999636 .33078004L.49899293 .07513428 .3999939 .35375978C.3959961 .36575318 .394989 .36775209 .394989 .37275697 .394989 .3996582 .43399049 .3996582 .45399476 .3996582V.43066407L.34999085 .42765809C.31999208 .42765809 .29100038 .4286499 .26098634 .43066407V.3996582C.2979889 .3996582 .31399537 .39767457 .32398988 .38476563 .32899476 .37875367 .33999635 .34877015 .34700013 .3297882L.26098634 .08811951 .1659851 .3547516C.16099549 .36676026 .16099549 .36875917 .16099549 .37275697 .16099549 .3996582 .19999695 .3996582 .21998596 .3996582V.43066407L.11099243 .42765809 .017990113 .43066407V.3996582C.067993167 .3996582 .07998657 .39668275 .09199524 .36476136L.21798706 .01121521C.22299195-.0027618409 .22599793-.0107421879 .23899842-.0107421879 .2519989-.0107421879 .2539978-.004760742 .25898744 .009216309L.3600006 .2918396 .46199037 .008224487C.46598817-.0027618409 .46899415-.0107421879 .48199464-.0107421879 .49499513-.0107421879 .49798585-.0017547608 .5019989 .008224487L.61898806 .3357849C.6369934 .38575746 .66799929 .39866639 .7029877 .3996582Z"/>
<path id="font_2_27" d="M.40098573 .18684387H.37599183C.36698915 .06895447 .34599305 .024993897 .22999573 .024993897H.11199951L.3899994 .40066529C.39898683 .4116516 .39898683 .4136505 .39898683 .41766358 .39898683 .43066407 .3909912 .43066407 .37298585 .43066407H.052993776L.041992189 .2697754H.066986087C.07299805 .37168885 .09199524 .4086609 .20199585 .4086609H.31599427L.036987306 .031982423C.027999878 .020996094 .027999878 .018997193 .027999878 .01399231 .027999878 0 .034988405 0 .053985597 0H.38398744L.40098573 .18684387Z"/>
<path id="font_3_13" d="M.54299929 .14407349C.54299929 .15306092 .5379944 .15805054 .5269928 .15805054 .5179901 .15805054 .5130005 .15106201 .5099945 .13708496 .5049896 .11810303 .5 .09913635 .49299623 .08015442 .47999574 .039215089 .46199037 .018249512 .43998719 .018249512 .42199708 .018249512 .41299439 .032226564 .41299439 .060195924 .41299439 .0771637 .41999818 .1111145 .43299867 .16104126L.45999146 .26689149C.46899415 .3028412 .47698976 .32780458 .48298646 .35876466L.4889984 .38571168C.4909973 .39271546 .49198915 .39770509 .49198915 .4006958 .49198915 .42066957 .48098756 .43066407 .45899964 .43066407 .43699647 .43066407 .4229889 .41867066 .4169922 .39370729L.34298707 .09812927C.34199525 .09513855 .33799745 .088150028 .32998658 .076171878 .31399537 .050201417 .2749939 .018249512 .23498535 .018249512 .19699097 .018249512 .17799378 .04421997 .17799378 .09513855 .17799378 .13607788 .19599915 .20198059 .23098755 .29385377 .24198914 .32380677 .24798584 .34477235 .24798584 .35676576 .24798584 .40737916 .21299744 .4423828 .16299439 .4423828 .117996219 .4423828 .08299255 .41737367 .057998659 .36735536 .038986207 .32835389 .0289917 .30134584 .0289917 .28733827 .0289917 .27833558 .033996583 .2733307 .04499817 .2733307 .057998659 .2733307 .05999756 .2793274 .06399536 .29333497 .08699036 .3733673 .11898804 .41337586 .1599884 .41337586 .17399597 .41337586 .18099976 .4033661 .18099976 .3843689 .18099976 .36935426 .1749878 .34835816 .1639862 .3193512 .12599182 .2183075 .10699463 .14828491 .10699463 .11128235 .10699463 .03425598 .15499878-.0107421879 .23199463-.0107421879 .2749939-.0107421879 .31399537 .009246826 .34700013 .05026245 .36099244 .009246826 .3909912-.0107421879 .43699647-.0107421879 .5059967-.0107421879 .5269928 .07026672 .54299929 .14428711V.14407349Z"/>
<path id="font_3_14" d="M.9319916 .23440552C.93899539 .2374115 .94299319 .2434082 .94299319 .250412 .94299319 .2574005 .93899539 .26341249 .9319916 .2664032 .8839874 .28240968 .83898928 .31640626 .7969971 .3684082 .7689972 .40341188 .75 .44441224 .7409973 .4914093 .73799136 .5044098 .7299957 .5104065 .71699526 .5104065 .70098879 .5104065 .69299319 .5024109 .69299319 .4854126L.69400027 .4834137V.48240663C.71099856 .395401 .7549896 .32640077 .8279877 .27441407H.08198547C.06599426 .27441407 .057998659 .2664032 .057998659 .250412 .057998659 .23440552 .06599426 .22640991 .08198547 .22640991H.8279877C.7549896 .17436219 .71099856 .10531616 .69400027 .018249512V.017242432L.69299319 .01524353C.69299319-.0017700195 .70098879-.009765625 .71699526-.009765625 .7299957-.009765625 .73799136-.003768921 .7409973 .009246826 .75 .056274415 .7689972 .0973053 .7969971 .13233948 .83898928 .18437195 .8839874 .21839905 .9319916 .23440552Z"/>
<path id="font_3_15" d="M.10398865 .5895691V.09490967C.10398865 .04498291 .09899902 .042999269 .04699707 .042999269 .025985718 .042999269 .015991211 .035995485 .015991211 .021987915 .015991211 .0039978029 .0309906 0 .053985597 0H.32398988C.34899903 0 .36099244 .0069885256 .36099244 .021987915 .36099244 .035995485 .34999085 .042999269 .32899476 .042999269 .2769928 .042999269 .272995 .04498291 .272995 .09490967V.3095703H.3019867L.44999696 .08293152C.47499085 .042999269 .48999024 .019989014 .49398805 .01399231 .5 .004989624 .5119934 0 .5299988 0H.66600039C.69099429 0 .7029877 .0069885256 .7029877 .021987915 .7029877 .032989503 .69699099 .039993287 .68499758 .041992189 .6599884 .04698181 .625 .08192444 .57899478 .14582825 .5339966 .20773316 .49398805 .26663209 .45899964 .32156373 .57299807 .3435669 .6299896 .40156556 .6299896 .4955597 .6299896 .56256106 .59999087 .6125641 .5399933 .64356997 .48799134 .67056277 .42900086 .6845703 .3639984 .6845703H.053985597C.0289917 .6845703 .015991211 .6775665 .015991211 .66256716 .015991211 .6485596 .025985718 .6415558 .04699707 .6415558 .09899902 .6415558 .10398865 .6395569 .10398865 .5895691M.5349884 .5965576C.56999209 .5755615 .58699038 .54156497 .58699038 .4955597 .58699038 .42655946 .5469971 .38456727 .46798707 .36756898 .4850006 .39556886 .49398805 .43756105 .49398805 .49456788 .49398805 .55155947 .48298646 .5955658 .46199037 .62857058 .4869995 .6215668 .5119934 .611557 .5349884 .5965576M.45199586 .49456788C.45199586 .43255616 .44099427 .39356996 .4189911 .37756349 .39698792 .361557 .34799195 .35256959 .272995 .35256959V.5925598C.272995 .6295624 .2869873 .6415558 .32998658 .6415558 .4249878 .6415558 .45199586 .5945587 .45199586 .49456788M.41299439 .31556703C.49598695 .1837616 .5609894 .09291077 .6100006 .042999269H.5249939L.35198976 .31056214C.35699464 .3115692 .36099244 .3115692 .3639984 .3115692 .37799073 .3115692 .3939972 .31256105 .41299439 .31556703M.13999939 .6415558H.23999024C.23399353 .63056948 .23098755 .61557009 .23098755 .5955658V.09291077C.23098755 .07194519 .23298645 .054977418 .23699951 .042999269H.13999939C.14399719 .054977418 .1459961 .07194519 .1459961 .09291077V.591568C.1459961 .6125641 .14399719 .6295624 .13999939 .6415558Z"/>
<path id="font_3_16" d="M.1619873 .52601626C.1619873 .5560303 .13899231 .58203127 .10899353 .58203127 .07899475 .58203127 .055999757 .5560303 .055999757 .52601626 .055999757 .49502564 .07899475 .46902467 .10899353 .46902467 .13899231 .46902467 .1619873 .49601747 .1619873 .52601626M.1619873 .2503357C.1619873 .28033448 .13899231 .30633546 .10899353 .30633546 .07899475 .30633546 .055999757 .2813263 .055999757 .2503357 .055999757 .21932984 .07899475 .19433594 .10899353 .19433594 .13899231 .19433594 .1619873 .22032166 .1619873 .2503357M.1619873-.026031495C.1619873 .0049591066 .13899231 .030960083 .10899353 .030960083 .07899475 .030960083 .055999757 .0049591066 .055999757-.026031495 .055999757-.056045534 .07899475-.08203125 .10899353-.08203125 .13899231-.08203125 .1619873-.056045534 .1619873-.026031495Z"/>
<path id="font_3_17" d="M.11898804 .4240265C.15098572 .4240265 .1749878 .44802857 .1749878 .4800415 .1749878 .516037 .1559906 .53504946 .11898804 .53604128 .14099121 .5830536 .19099427 .621048 .2559967 .621048 .34399415 .621048 .4019928 .5550537 .4019928 .46704103 .4019928 .41903688 .3849945 .37303163 .34999085 .3280182 .33299256 .3050232 .31999208 .28901673 .31098939 .28001405L.07398987 .04499817C.06098938 .032989503 .06298828 .02999878 .06298828 0H.47499085L.5059967 .18800354H.46398927C.45700074 .1349945 .44898988 .10398865 .43998719 .09700012 .43499757 .09399414 .4039917 .09199524 .34498597 .09199524H.1749878C.24198914 .15100098 .3039856 .20401001 .36299134 .25100709 .4079895 .28601075 .43998719 .3170166 .45999146 .34402467 .48999024 .38302613 .5049896 .4240265 .5049896 .46704103 .5049896 .52905276 .48098756 .5780487 .43199159 .61405947 .3889923 .64704897 .33499146 .6640625 .2709961 .6640625 .21598816 .6640625 .16899109 .64805606 .12799073 .61605837 .084991458 .5810547 .06298828 .53704836 .06298828 .4830475 .06298828 .44903565 .08799744 .4240265 .11898804 .4240265Z"/>
<path id="font_3_18" d="M.5629883 .0040283205H.37298585C.30999757 .0040283205 .2539978 .025054932 .20799256 .06813049 .1619873 .111206058 .13598633 .16329956 .12998963 .22640991H.5629883C.57899478 .22640991 .58699038 .23440552 .58699038 .250412 .58699038 .2664032 .57899478 .27441407 .5629883 .27441407H.12998963C.13598633 .33728028 .1619873 .38917542 .20799256 .43208314 .2539978 .4750061 .30999757 .49595643 .37298585 .49595643H.5629883C.57899478 .49595643 .58699038 .5039673 .58699038 .5189667 .58699038 .5349579 .57899478 .54296877 .5629883 .54296877H.37298585C.2919922 .54296877 .22299195 .5149536 .1659851 .45803834 .10899353 .40115357 .08099365 .33229066 .08099365 .250412 .08099365 .16830445 .10899353 .09918213 .1659851 .04208374 .22299195-.014968872 .2919922-.04296875 .37298585-.04296875H.5629883C.57899478-.04296875 .58699038-.034973146 .58699038-.018981934 .58699038-.0069732668 .57598879 .0040283205 .5629883 .0040283205Z"/>
</defs>
<path transform="matrix(1,0,0,1,42.519685,15.339081)" d="M8.503937 0C3.8116008 0 0 3.8116008 0 8.503937V136.06299C0 140.75533 3.8116008 144.56693 8.503937 144.56693H311.81105C316.50337 144.56693 320.31498 140.75533 320.31498 136.06299V8.503937C320.31498 3.8116008 316.50337 0 311.81105 0H8.503937Z" fill="#0074d9" fill-opacity=".050980394"/>
<path transform="matrix(1,0,0,1,42.519685,15.339081)" stroke-width="1" stroke-linecap="butt" stroke-dasharray="3,3" stroke-miterlimit="4" stroke-linejoin="miter" fill="none" stroke="#0074d9" d="M8.503937 0C3.8116008 0 0 3.8116008 0 8.503937V136.06299C0 140.75533 3.8116008 144.56693 8.503937 144.56693H311.81105C316.50337 144.56693 320.31498 140.75533 320.31498 136.06299V8.503937C320.31498 3.8116008 316.50337 0 311.81105 0H8.503937Z"/>
<path transform="matrix(1,0,0,1,99.2126,64.94538)" d="M1.1338583 0C.5082134 0 0 .5082134 0 1.1338583V30.047245C0 30.67289 .5082134 31.181103 1.1338583 31.181103H72.56693C73.19257 31.181103 73.70079 30.67289 73.70079 30.047245V1.1338583C73.70079 .5082134 73.19257 0 72.56693 0H1.1338583Z" fill="#ffffff"/>
<path transform="matrix(1,0,0,1,99.2126,64.94538)" stroke-width=".8503937" stroke-linecap="butt" stroke-miterlimit="4" stroke-linejoin="miter" fill="none" stroke="#000000" d="M1.1338583 0C.5082134 0 0 .5082134 0 1.1338583V30.047245C0 30.67289 .5082134 31.181103 1.1338583 31.181103H72.56693C73.19257 31.181103 73.70079 30.67289 73.70079 30.047245V1.1338583C73.70079 .5082134 73.19257 0 72.56693 0H1.1338583Z"/>
<use data-text="E" xlink:href="#font_1_1" transform="matrix(9,0,0,-9,106.45749,76.63443)"/>
<use data-text="x" xlink:href="#font_1_2" transform="matrix(9,0,0,-9,112.55949,76.63443)"/>
<use data-text="t" xlink:href="#font_1_3" transform="matrix(9,0,0,-9,116.73549,76.63443)"/>
<use data-text="e" xlink:href="#font_1_4" transform="matrix(9,0,0,-9,119.72349,76.63443)"/>
<use data-text="r" xlink:href="#font_1_5" transform="matrix(9,0,0,-9,123.86349,76.63443)"/>
<use data-text="n" xlink:href="#font_1_6" transform="matrix(9,0,0,-9,127.66149,76.63443)"/>
<use data-text="a" xlink:href="#font_1_7" transform="matrix(9,0,0,-9,132.71949,76.63443)"/>
<use data-text="l" xlink:href="#font_1_8" transform="matrix(9,0,0,-9,137.3185,76.63443)"/>
<use data-text=" " xlink:href="#font_2_1" transform="matrix(9,0,0,-9,139.6225,76.63443)"/>
<use data-text="r" xlink:href="#font_2_2" transform="matrix(9,0,0,-9,142.61949,76.63443)"/>
<use data-text="e" xlink:href="#font_2_3" transform="matrix(9,0,0,-9,146.14749,76.63443)"/>
<use data-text="g" xlink:href="#font_2_4" transform="matrix(9,0,0,-9,150.1435,76.63443)"/>
<use data-text="r" xlink:href="#font_2_2" transform="matrix(9,0,0,-9,154.6435,76.63443)"/>
<use data-text="e" xlink:href="#font_2_3" transform="matrix(9,0,0,-9,158.1715,76.63443)"/>
<use data-text="t" xlink:href="#font_2_5" transform="matrix(9,0,0,-9,162.1675,76.63443)"/>
<use data-text="m" xlink:href="#font_2_6" transform="matrix(9,0,0,-9,107.69859,88.63143)"/>
<use data-text="i" xlink:href="#font_2_7" transform="matrix(9,0,0,-9,115.195598,88.63143)"/>
<use data-text="n" xlink:href="#font_2_8" transform="matrix(9,0,0,-9,117.69759,88.63143)"/>
<use data-text="i" xlink:href="#font_2_7" transform="matrix(9,0,0,-9,122.70159,88.63143)"/>
<use data-text="m" xlink:href="#font_2_6" transform="matrix(9,0,0,-9,125.2036,88.63143)"/>
<use data-text="." xlink:href="#font_2_9" transform="matrix(9,0,0,-9,132.70059,88.63143)"/>
<use data-text=" " xlink:href="#font_2_1" transform="matrix(9,0,0,-9,135.20259,88.63143)"/>
<use data-text="f" xlink:href="#font_2_10" transform="matrix(9,0,0,-9,138.1996,88.63143)"/>
<use data-text="o" xlink:href="#font_2_11" transform="matrix(9,0,0,-9,140.9536,88.63143)"/>
<use data-text="r" xlink:href="#font_2_2" transform="matrix(9,0,0,-9,145.4536,88.63143)"/>
<use data-text=" " xlink:href="#font_2_1" transform="matrix(9,0,0,-9,148.9816,88.63143)"/>
<use data-text="&#x0394;" xlink:href="#font_3_1" transform="matrix(9,0,0,-9,151.97859,88.63143)"/>
<use data-text="&#x1d45b;" xlink:href="#font_3_2" transform="matrix(6.3,0,0,-6.3,159.47559,85.36443)"/>
<path transform="matrix(1,0,0,1,201.25984,64.94538)" d="M1.1338583 0C.5082134 0 0 .5082134 0 1.1338583V30.047245C0 30.67289 .5082134 31.181103 1.1338583 31.181103H61.228349C61.853994 31.181103 62.362207 30.67289 62.362207 30.047245V1.1338583C62.362207 .5082134 61.853994 0 61.228349 0H1.1338583Z" fill="#ffffff"/>
<path transform="matrix(1,0,0,1,201.25984,64.94538)" stroke-width=".8503937" stroke-linecap="butt" stroke-miterlimit="4" stroke-linejoin="miter" fill="none" stroke="#000000" d="M1.1338583 0C.5082134 0 0 .5082134 0 1.1338583V30.047245C0 30.67289 .5082134 31.181103 1.1338583 31.181103H61.228349C61.853994 31.181103 62.362207 30.67289 62.362207 30.047245V1.1338583C62.362207 .5082134 61.853994 0 61.228349 0H1.1338583Z"/>
<use data-text="A" xlink:href="#font_2_12" transform="matrix(9,0,0,-9,205.06745,76.373889)"/>
<use data-text="s" xlink:href="#font_2_13" transform="matrix(9,0,0,-9,211.81745,76.373889)"/>
<use data-text="s" xlink:href="#font_2_13" transform="matrix(9,0,0,-9,215.36345,76.373889)"/>
<use data-text="e" xlink:href="#font_2_3" transform="matrix(9,0,0,-9,218.90944,76.373889)"/>
<use data-text="m" xlink:href="#font_2_6" transform="matrix(9,0,0,-9,222.90544,76.373889)"/>
<use data-text="b" xlink:href="#font_2_14" transform="matrix(9,0,0,-9,230.15045,76.373889)"/>
<use data-text="l" xlink:href="#font_2_15" transform="matrix(9,0,0,-9,235.15445,76.373889)"/>
<use data-text="e" xlink:href="#font_2_3" transform="matrix(9,0,0,-9,237.65645,76.373889)"/>
<use data-text=" " xlink:href="#font_2_1" transform="matrix(9,0,0,-9,241.65244,76.373889)"/>
<use data-text="&#x1d443;" xlink:href="#font_3_3" transform="matrix(9,0,0,-9,244.64945,76.373889)"/>
<use data-text="(" xlink:href="#font_3_4" transform="matrix(6.3,0,0,-6.3,251.68744,73.10688)"/>
<use data-text="&#x1d461;" xlink:href="#font_3_5" transform="matrix(6.3,0,0,-6.3,254.13814,73.10688)"/>
<use data-text=")" xlink:href="#font_3_6" transform="matrix(6.3,0,0,-6.3,256.85975,73.10688)"/>
<use data-text="(" xlink:href="#font_3_4" transform="matrix(9,0,0,-9,206.47191,88.37088)"/>
<use data-text="&#x1d45d;" xlink:href="#font_3_7" transform="matrix(9,0,0,-9,209.9729,88.37088)"/>
<use data-text="(" xlink:href="#font_3_4" transform="matrix(6.3,0,0,-6.3,214.6349,83.56039)"/>
<use data-text="&#x1d461;" xlink:href="#font_3_5" transform="matrix(6.3,0,0,-6.3,217.0856,83.56039)"/>
<use data-text=")" xlink:href="#font_3_6" transform="matrix(6.3,0,0,-6.3,219.8072,83.56039)"/>
<use data-text="1" xlink:href="#font_3_8" transform="matrix(6.3,0,0,-6.3,214.49991,90.74598)"/>
<use data-text="|" xlink:href="#font_3_9" transform="matrix(9,0,0,-9,224.17923,88.37088)"/>
<use data-text="&#x22ef;" xlink:href="#font_3_10" transform="matrix(9,0,0,-9,228.66548,88.37088)"/>
<use data-text="|" xlink:href="#font_3_9" transform="matrix(9,0,0,-9,237.63373,88.37088)"/>
<use data-text="&#x1d45d;" xlink:href="#font_3_7" transform="matrix(9,0,0,-9,242.11998,88.37088)"/>
<use data-text="(" xlink:href="#font_3_4" transform="matrix(6.3,0,0,-6.3,246.78199,84.81319)"/>
<use data-text="&#x1d461;" xlink:href="#font_3_5" transform="matrix(6.3,0,0,-6.3,249.23268,84.81319)"/>
<use data-text=")" xlink:href="#font_3_6" transform="matrix(6.3,0,0,-6.3,251.95429,84.81319)"/>
<use data-text="&#x1d45b;" xlink:href="#font_3_2" transform="matrix(6.3,0,0,-6.3,246.64699,90.59388)"/>
<use data-text=")" xlink:href="#font_3_6" transform="matrix(9,0,0,-9,254.90898,88.37088)"/>
<path transform="matrix(1,0,0,1,99.2126,25.260346)" d="M1.1338583 0C.5082134 0 0 .5082134 0 1.1338583V30.047245C0 30.67289 .5082134 31.181103 1.1338583 31.181103H72.56693C73.19257 31.181103 73.70079 30.67289 73.70079 30.047245V1.1338583C73.70079 .5082134 73.19257 0 72.56693 0H1.1338583Z" fill="#ffffff"/>
<path transform="matrix(1,0,0,1,99.2126,25.260346)" stroke-width=".8503937" stroke-linecap="butt" stroke-miterlimit="4" stroke-linejoin="miter" fill="none" stroke="#000000" d="M1.1338583 0C.5082134 0 0 .5082134 0 1.1338583V30.047245C0 30.67289 .5082134 31.181103 1.1338583 31.181103H72.56693C73.19257 31.181103 73.70079 30.67289 73.70079 30.047245V1.1338583C73.70079 .5082134 73.19257 0 72.56693 0H1.1338583Z"/>
<use data-text="E" xlink:href="#font_1_1" transform="matrix(9,0,0,-9,106.45749,36.949396)"/>
<use data-text="x" xlink:href="#font_1_2" transform="matrix(9,0,0,-9,112.55949,36.949396)"/>
<use data-text="t" xlink:href="#font_1_3" transform="matrix(9,0,0,-9,116.73549,36.949396)"/>
<use data-text="e" xlink:href="#font_1_4" transform="matrix(9,0,0,-9,119.72349,36.949396)"/>
<use data-text="r" xlink:href="#font_1_5" transform="matrix(9,0,0,-9,123.86349,36.949396)"/>
<use data-text="n" xlink:href="#font_1_6" transform="matrix(9,0,0,-9,127.66149,36.949396)"/>
<use data-text="a" xlink:href="#font_1_7" transform="matrix(9,0,0,-9,132.71949,36.949396)"/>
<use data-text="l" xlink:href="#font_1_8" transform="matrix(9,0,0,-9,137.3185,36.949396)"/>
<use data-text=" " xlink:href="#font_2_1" transform="matrix(9,0,0,-9,139.6225,36.949396)"/>
<use data-text="r" xlink:href="#font_2_2" transform="matrix(9,0,0,-9,142.61949,36.949396)"/>
<use data-text="e" xlink:href="#font_2_3" transform="matrix(9,0,0,-9,146.14749,36.949396)"/>
<use data-text="g" xlink:href="#font_2_4" transform="matrix(9,0,0,-9,150.1435,36.949396)"/>
<use data-text="r" xlink:href="#font_2_2" transform="matrix(9,0,0,-9,154.6435,36.949396)"/>
<use data-text="e" xlink:href="#font_2_3" transform="matrix(9,0,0,-9,158.1715,36.949396)"/>
<use data-text="t" xlink:href="#font_2_5" transform="matrix(9,0,0,-9,162.1675,36.949396)"/>
<use data-text="m" xlink:href="#font_2_6" transform="matrix(9,0,0,-9,107.69859,48.946397)"/>
<use data-text="i" xlink:href="#font_2_7" transform="matrix(9,0,0,-9,115.195598,48.946397)"/>
<use data-text="n" xlink:href="#font_2_8" transform="matrix(9,0,0,-9,117.69759,48.946397)"/>
<use data-text="i" xlink:href="#font_2_7" transform="matrix(9,0,0,-9,122.70159,48.946397)"/>
<use data-text="m" xlink:href="#font_2_6" transform="matrix(9,0,0,-9,125.2036,48.946397)"/>
<use data-text="." xlink:href="#font_2_9" transform="matrix(9,0,0,-9,132.70059,48.946397)"/>
<use data-text=" " xlink:href="#font_2_1" transform="matrix(9,0,0,-9,135.20259,48.946397)"/>
<use data-text="f" xlink:href="#font_2_10" transform="matrix(9,0,0,-9,138.1996,48.946397)"/>
<use data-text="o" xlink:href="#font_2_11" transform="matrix(9,0,0,-9,140.9536,48.946397)"/>
<use data-text="r" xlink:href="#font_2_2" transform="matrix(9,0,0,-9,145.4536,48.946397)"/>
<use data-text=" " xlink:href="#font_2_1" transform="matrix(9,0,0,-9,148.9816,48.946397)"/>
<use data-text="&#x0394;" xlink:href="#font_3_1" transform="matrix(9,0,0,-9,151.97859,48.946397)"/>
<use data-text="&#x1d45b;" xlink:href="#font_3_2" transform="matrix(6.3,0,0,-6.3,159.47559,45.679399)"/>
<path transform="matrix(1,0,0,1,99.2126,118.80365)" d="M1.1338583 0C.5082134 0 0 .5082134 0 1.1338583V30.047245C0 30.67289 .5082134 31.181103 1.1338583 31.181103H72.56693C73.19257 31.181103 73.70079 30.67289 73.70079 30.047245V1.1338583C73.70079 .5082134 73.19257 0 72.56693 0H1.1338583Z" fill="#ffffff"/>
<path transform="matrix(1,0,0,1,99.2126,118.80365)" stroke-width=".8503937" stroke-linecap="butt" stroke-miterlimit="4" stroke-linejoin="miter" fill="none" stroke="#000000" d="M1.1338583 0C.5082134 0 0 .5082134 0 1.1338583V30.047245C0 30.67289 .5082134 31.181103 1.1338583 31.181103H72.56693C73.19257 31.181103 73.70079 30.67289 73.70079 30.047245V1.1338583C73.70079 .5082134 73.19257 0 72.56693 0H1.1338583Z"/>
<use data-text="E" xlink:href="#font_1_1" transform="matrix(9,0,0,-9,106.45749,130.4927)"/>
<use data-text="x" xlink:href="#font_1_2" transform="matrix(9,0,0,-9,112.55949,130.4927)"/>
<use data-text="t" xlink:href="#font_1_3" transform="matrix(9,0,0,-9,116.73549,130.4927)"/>
<use data-text="e" xlink:href="#font_1_4" transform="matrix(9,0,0,-9,119.72349,130.4927)"/>
<use data-text="r" xlink:href="#font_1_5" transform="matrix(9,0,0,-9,123.86349,130.4927)"/>
<use data-text="n" xlink:href="#font_1_6" transform="matrix(9,0,0,-9,127.66149,130.4927)"/>
<use data-text="a" xlink:href="#font_1_7" transform="matrix(9,0,0,-9,132.71949,130.4927)"/>
<use data-text="l" xlink:href="#font_1_8" transform="matrix(9,0,0,-9,137.3185,130.4927)"/>
<use data-text=" " xlink:href="#font_2_1" transform="matrix(9,0,0,-9,139.6225,130.4927)"/>
<use data-text="r" xlink:href="#font_2_2" transform="matrix(9,0,0,-9,142.61949,130.4927)"/>
<use data-text="e" xlink:href="#font_2_3" transform="matrix(9,0,0,-9,146.14749,130.4927)"/>
<use data-text="g" xlink:href="#font_2_4" transform="matrix(9,0,0,-9,150.1435,130.4927)"/>
<use data-text="r" xlink:href="#font_2_2" transform="matrix(9,0,0,-9,154.6435,130.4927)"/>
<use data-text="e" xlink:href="#font_2_3" transform="matrix(9,0,0,-9,158.1715,130.4927)"/>
<use data-text="t" xlink:href="#font_2_5" transform="matrix(9,0,0,-9,162.1675,130.4927)"/>
<use data-text="m" xlink:href="#font_2_6" transform="matrix(9,0,0,-9,107.69859,142.4897)"/>
<use data-text="i" xlink:href="#font_2_7" transform="matrix(9,0,0,-9,115.195598,142.4897)"/>
<use data-text="n" xlink:href="#font_2_8" transform="matrix(9,0,0,-9,117.69759,142.4897)"/>
<use data-text="i" xlink:href="#font_2_7" transform="matrix(9,0,0,-9,122.70159,142.4897)"/>
<use data-text="m" xlink:href="#font_2_6" transform="matrix(9,0,0,-9,125.2036,142.4897)"/>
<use data-text="." xlink:href="#font_2_9" transform="matrix(9,0,0,-9,132.70059,142.4897)"/>
<use data-text=" " xlink:href="#font_2_1" transform="matrix(9,0,0,-9,135.20259,142.4897)"/>
<use data-text="f" xlink:href="#font_2_10" transform="matrix(9,0,0,-9,138.1996,142.4897)"/>
<use data-text="o" xlink:href="#font_2_11" transform="matrix(9,0,0,-9,140.9536,142.4897)"/>
<use data-text="r" xlink:href="#font_2_2" transform="matrix(9,0,0,-9,145.4536,142.4897)"/>
<use data-text=" " xlink:href="#font_2_1" transform="matrix(9,0,0,-9,148.9816,142.4897)"/>
<use data-text="&#x0394;" xlink:href="#font_3_1" transform="matrix(9,0,0,-9,151.97859,142.4897)"/>
<use data-text="&#x1d45b;" xlink:href="#font_3_2" transform="matrix(6.3,0,0,-6.3,159.47559,139.2227)"/>
<path transform="matrix(1,0,0,1,283.46458,64.94538)" d="M1.1338583 0C.5082134 0 0 .5082134 0 1.1338583V30.047245C0 30.67289 .5082134 31.181103 1.1338583 31.181103H72.56693C73.19257 31.181103 73.70079 30.67289 73.70079 30.047245V1.1338583C73.70079 .5082134 73.19257 0 72.56693 0H1.1338583Z" fill="#ffffff"/>
<path transform="matrix(1,0,0,1,283.46458,64.94538)" stroke-width=".8503937" stroke-linecap="butt" stroke-miterlimit="4" stroke-linejoin="miter" fill="none" stroke="#000000" d="M1.1338583 0C.5082134 0 0 .5082134 0 1.1338583V30.047245C0 30.67289 .5082134 31.181103 1.1338583 31.181103H72.56693C73.19257 31.181103 73.70079 30.67289 73.70079 30.047245V1.1338583C73.70079 .5082134 73.19257 0 72.56693 0H1.1338583Z"/>
<use data-text="F" xlink:href="#font_2_16" transform="matrix(9,0,0,-9,297.49546,74.21343)"/>
<use data-text="i" xlink:href="#font_2_7" transform="matrix(9,0,0,-9,303.37248,74.21343)"/>
<use data-text="x" xlink:href="#font_2_17" transform="matrix(9,0,0,-9,305.87446,74.21343)"/>
<use data-text="e" xlink:href="#font_2_3" transform="matrix(9,0,0,-9,310.62648,74.21343)"/>
<use data-text="d" xlink:href="#font_2_18" transform="matrix(9,0,0,-9,314.62248,74.21343)"/>
<use data-text=" " xlink:href="#font_2_1" transform="matrix(9,0,0,-9,319.62648,74.21343)"/>
<use data-text="p" xlink:href="#font_2_19" transform="matrix(9,0,0,-9,322.62345,74.21343)"/>
<use data-text="o" xlink:href="#font_2_11" transform="matrix(9,0,0,-9,327.87947,74.21343)"/>
<use data-text="i" xlink:href="#font_2_7" transform="matrix(9,0,0,-9,332.37947,74.21343)"/>
<use data-text="n" xlink:href="#font_2_8" transform="matrix(9,0,0,-9,334.88148,74.21343)"/>
<use data-text="t" xlink:href="#font_2_5" transform="matrix(9,0,0,-9,339.63346,74.21343)"/>
<use data-text="&#x1d465;" xlink:href="#font_3_11" transform="matrix(9,0,0,-9,293.45646,91.16043)"/>
<use data-text="(" xlink:href="#font_3_4" transform="matrix(6.3,0,0,-6.3,298.60447,87.89343)"/>
<use data-text="&#x1d461;" xlink:href="#font_3_5" transform="matrix(6.3,0,0,-6.3,301.05519,87.89343)"/>
<use data-text=")" xlink:href="#font_3_6" transform="matrix(6.3,0,0,-6.3,303.77677,87.89343)"/>
<use data-text="=" xlink:href="#font_3_12" transform="matrix(9,0,0,-9,309.23149,91.16043)"/>
<use data-text="&#x1d443;" xlink:href="#font_3_3" transform="matrix(9,0,0,-9,318.73347,91.16043)"/>
<use data-text="(" xlink:href="#font_3_4" transform="matrix(6.3,0,0,-6.3,325.77146,87.89343)"/>
<use data-text="&#x1d461;" xlink:href="#font_3_5" transform="matrix(6.3,0,0,-6.3,328.22218,87.89343)"/>
<use data-text=")" xlink:href="#font_3_6" transform="matrix(6.3,0,0,-6.3,330.94377,87.89343)"/>
<use data-text="&#x1d465;" xlink:href="#font_3_11" transform="matrix(9,0,0,-9,333.89848,91.16043)"/>
<use data-text="(" xlink:href="#font_3_4" transform="matrix(6.3,0,0,-6.3,339.04646,87.89343)"/>
<use data-text="&#x1d461;" xlink:href="#font_3_5" transform="matrix(6.3,0,0,-6.3,341.49717,87.89343)"/>
<use data-text=")" xlink:href="#font_3_6" transform="matrix(6.3,0,0,-6.3,344.21876,87.89343)"/>
<path transform="matrix(1,0,0,1,51.02362,78.835147)" d="M1.7007874 0C.7623201 0 0 .7623201 0 1.7007874 0 2.6392546 .7623201 3.4015749 1.7007874 3.4015749 2.6392546 3.4015749 3.4015749 2.6392546 3.4015749 1.7007874 3.4015749 .7623201 2.6392546 0 1.7007874 0Z"/>
<path transform="matrix(1,0,0,1,51.02362,78.835147)" stroke-width=".8503937" stroke-linecap="butt" stroke-miterlimit="4" stroke-linejoin="miter" fill="none" stroke="#000000" d="M1.7007874 0C.7623201 0 0 .7623201 0 1.7007874 0 2.6392546 .7623201 3.4015749 1.7007874 3.4015749 2.6392546 3.4015749 3.4015749 2.6392546 3.4015749 1.7007874 3.4015749 .7623201 2.6392546 0 1.7007874 0Z"/>
<path transform="matrix(1,0,0,1,2.8346458,80.535938)" stroke-width=".992126" stroke-linecap="butt" stroke-miterlimit="4" stroke-linejoin="miter" fill="none" stroke="#000000" d="M0 0H44.225008"/>
<path transform="matrix(1,0,0,1,46.20926,79.260349)" d="M3.4015749 1.2755905 0 0 .8503937 1.2755905 0 2.551181 3.4015749 1.2755905Z"/>
<path transform="matrix(1,0,0,1,46.20926,79.260349)" stroke-width=".992126" stroke-linecap="butt" stroke-miterlimit="4" stroke-linejoin="miter" fill="none" stroke="#000000" d="M3.4015749 1.2755905 0 0 .8503937 1.2755905 0 2.551181 3.4015749 1.2755905Z"/>
<path transform="matrix(1,0,0,1,52.72441,80.535938)" stroke-width=".992126" stroke-linecap="butt" stroke-miterlimit="4" stroke-linejoin="miter" fill="none" stroke="#000000" d="M0 0H42.52422"/>
<path transform="matrix(1,0,0,1,94.39824,79.260349)" d="M3.4015749 1.2755905 0 0 .8503937 1.2755905 0 2.551181 3.4015749 1.2755905Z"/>
<path transform="matrix(1,0,0,1,94.39824,79.260349)" stroke-width=".992126" stroke-linecap="butt" stroke-miterlimit="4" stroke-linejoin="miter" fill="none" stroke="#000000" d="M3.4015749 1.2755905 0 0 .8503937 1.2755905 0 2.551181 3.4015749 1.2755905Z"/>
<path transform="matrix(1,0,0,1,52.72441,40.85089)" stroke-width=".992126" stroke-linecap="butt" stroke-miterlimit="4" stroke-linejoin="miter" fill="none" stroke="#000000" d="M0 39.68504C18.141734 39.68504-1.7007874 0 18.141734 0"/>
<path transform="matrix(1,0,0,1,52.72441,80.535938)" stroke-width=".992126" stroke-linecap="butt" stroke-miterlimit="4" stroke-linejoin="miter" fill="none" stroke="#000000" d="M0 0C18.141734 0-1.7007874 53.85827 18.141734 53.85827"/>
<path transform="matrix(1,0,0,1,172.91339,40.85089)" stroke-width=".992126" stroke-linecap="butt" stroke-miterlimit="4" stroke-linejoin="miter" fill="none" stroke="#000000" d="M0 0H45.354333"/>
<path transform="matrix(1,0,0,1,172.91339,134.3942)" stroke-width=".992126" stroke-linecap="butt" stroke-miterlimit="4" stroke-linejoin="miter" fill="none" stroke="#000000" d="M0 0H45.354333"/>
<path transform="matrix(1,0,0,1,70.86614,40.85089)" stroke-width=".992126" stroke-linecap="butt" stroke-miterlimit="4" stroke-linejoin="miter" fill="none" stroke="#000000" d="M0 0H24.382489"/>
<path transform="matrix(1,0,0,1,94.39824,39.575304)" d="M3.4015749 1.2755905 0 0 .8503937 1.2755905 0 2.551181 3.4015749 1.2755905Z"/>
<path transform="matrix(1,0,0,1,94.39824,39.575304)" stroke-width=".992126" stroke-linecap="butt" stroke-miterlimit="4" stroke-linejoin="miter" fill="none" stroke="#000000" d="M3.4015749 1.2755905 0 0 .8503937 1.2755905 0 2.551181 3.4015749 1.2755905Z"/>
<path transform="matrix(1,0,0,1,70.86614,134.3942)" stroke-width=".992126" stroke-linecap="butt" stroke-miterlimit="4" stroke-linejoin="miter" fill="none" stroke="#000000" d="M0 0H24.382489"/>
<path transform="matrix(1,0,0,1,94.39824,133.1186)" d="M3.4015749 1.2755905 0 0 .8503937 1.2755905 0 2.551181 3.4015749 1.2755905Z"/>
<path transform="matrix(1,0,0,1,94.39824,133.1186)" stroke-width=".992126" stroke-linecap="butt" stroke-miterlimit="4" stroke-linejoin="miter" fill="none" stroke="#000000" d="M3.4015749 1.2755905 0 0 .8503937 1.2755905 0 2.551181 3.4015749 1.2755905Z"/>
<path transform="matrix(1,0,0,1,357.16535,80.535938)" stroke-width=".992126" stroke-linecap="butt" stroke-miterlimit="4" stroke-linejoin="miter" fill="none" stroke="#000000" d="M0 0H38.555719"/>
<path transform="matrix(1,0,0,1,394.87068,79.260349)" d="M3.4015749 1.2755905 0 0 .8503937 1.2755905 0 2.551181 3.4015749 1.2755905Z"/>
<path transform="matrix(1,0,0,1,394.87068,79.260349)" stroke-width=".992126" stroke-linecap="butt" stroke-miterlimit="4" stroke-linejoin="miter" fill="none" stroke="#000000" d="M3.4015749 1.2755905 0 0 .8503937 1.2755905 0 2.551181 3.4015749 1.2755905Z"/>
<path transform="matrix(1,0,0,1,172.91339,80.535938)" stroke-width=".992126" stroke-linecap="butt" stroke-miterlimit="4" stroke-linejoin="miter" fill="none" stroke="#000000" d="M0 0H24.382489"/>
<path transform="matrix(1,0,0,1,196.44548,79.260349)" d="M3.4015749 1.2755905 0 0 .8503937 1.2755905 0 2.551181 3.4015749 1.2755905Z"/>
<path transform="matrix(1,0,0,1,196.44548,79.260349)" stroke-width=".992126" stroke-linecap="butt" stroke-miterlimit="4" stroke-linejoin="miter" fill="none" stroke="#000000" d="M3.4015749 1.2755905 0 0 .8503937 1.2755905 0 2.551181 3.4015749 1.2755905Z"/>
<path transform="matrix(1,0,0,1,263.62205,80.535938)" stroke-width=".992126" stroke-linecap="butt" stroke-miterlimit="4" stroke-linejoin="miter" fill="none" stroke="#000000" d="M0 0H15.878551"/>
<path transform="matrix(1,0,0,1,278.6502,79.260349)" d="M3.4015749 1.2755905 0 0 .8503937 1.2755905 0 2.551181 3.4015749 1.2755905Z"/>
<path transform="matrix(1,0,0,1,278.6502,79.260349)" stroke-width=".992126" stroke-linecap="butt" stroke-miterlimit="4" stroke-linejoin="miter" fill="none" stroke="#000000" d="M3.4015749 1.2755905 0 0 .8503937 1.2755905 0 2.551181 3.4015749 1.2755905Z"/>
<path transform="matrix(1,0,0,1,218.26772,40.85089)" stroke-width=".992126" stroke-linecap="butt" stroke-miterlimit="4" stroke-linejoin="miter" fill="none" stroke="#000000" d="M0 0C13.341782 0 14.124453 0 14.170367 20.098002"/>
<path transform="matrix(1,0,0,1,231.16333,60.130479)" d="M1.2770208 3.4021109 2.5511809 0 1.275948 .85093006 0 .0010727716 1.2770208 3.4021109Z"/>
<path transform="matrix(1,0,0,1,231.16333,60.130479)" stroke-width=".992126" stroke-linecap="butt" stroke-miterlimit="4" stroke-linejoin="miter" fill="none" stroke="#000000" d="M1.2770208 3.4021109 2.5511809 0 1.275948 .85093006 0 .0010727716 1.2770208 3.4021109Z"/>
<path transform="matrix(1,0,0,1,218.26772,100.212169)" stroke-width=".992126" stroke-linecap="butt" stroke-miterlimit="4" stroke-linejoin="miter" fill="none" stroke="#000000" d="M0 34.182035C13.649725 34.182035 14.1538929 34.182035 14.172514 0"/>
<path transform="matrix(1,0,0,1,231.16487,97.53927)" d="M1.2759349 0 0 3.4014457 1.2756766 2.551181 2.551181 3.4017039 1.2759349 0Z"/>
<path transform="matrix(1,0,0,1,231.16487,97.53927)" stroke-width=".992126" stroke-linecap="butt" stroke-miterlimit="4" stroke-linejoin="miter" fill="none" stroke="#000000" d="M1.2759349 0 0 3.4014457 1.2756766 2.551181 2.551181 3.4017039 1.2759349 0Z"/>
<use data-text="B" xlink:href="#font_2_20" transform="matrix(9,0,0,-9,47.16691,8.981644)" fill="#0074d9"/>
<use data-text="l" xlink:href="#font_2_15" transform="matrix(9,0,0,-9,53.53891,8.981644)" fill="#0074d9"/>
<use data-text="u" xlink:href="#font_2_21" transform="matrix(9,0,0,-9,56.04091,8.981644)" fill="#0074d9"/>
<use data-text="m" xlink:href="#font_2_6" transform="matrix(9,0,0,-9,61.04491,8.981644)" fill="#0074d9"/>
<use data-text="-" xlink:href="#font_2_22" transform="matrix(9,0,0,-9,68.54191,8.981644)" fill="#0074d9"/>
<use data-text="M" xlink:href="#font_2_23" transform="matrix(9,0,0,-9,71.53891,8.981644)" fill="#0074d9"/>
<use data-text="a" xlink:href="#font_2_24" transform="matrix(9,0,0,-9,79.79191,8.981644)" fill="#0074d9"/>
<use data-text="n" xlink:href="#font_2_8" transform="matrix(9,0,0,-9,84.29191,8.981644)" fill="#0074d9"/>
<use data-text="s" xlink:href="#font_2_13" transform="matrix(9,0,0,-9,89.29591,8.981644)" fill="#0074d9"/>
<use data-text="o" xlink:href="#font_2_11" transform="matrix(9,0,0,-9,92.84191,8.981644)" fill="#0074d9"/>
<use data-text="u" xlink:href="#font_2_21" transform="matrix(9,0,0,-9,97.34191,8.981644)" fill="#0074d9"/>
<use data-text="r" xlink:href="#font_2_2" transform="matrix(9,0,0,-9,102.34592,8.981644)" fill="#0074d9"/>
<use data-text="&#x2019;" xlink:href="#font_2_25" transform="matrix(9,0,0,-9,105.87392,8.981644)" fill="#0074d9"/>
<use data-text="s" xlink:href="#font_2_13" transform="matrix(9,0,0,-9,108.375919,8.981644)" fill="#0074d9"/>
<use data-text=" " xlink:href="#font_2_1" transform="matrix(9,0,0,-9,111.92191,8.981644)" fill="#0074d9"/>
<use data-text="s" xlink:href="#font_2_13" transform="matrix(9,0,0,-9,114.918918,8.981644)" fill="#0074d9"/>
<use data-text="w" xlink:href="#font_2_26" transform="matrix(9,0,0,-9,118.46491,8.981644)" fill="#0074d9"/>
<use data-text="a" xlink:href="#font_2_24" transform="matrix(9,0,0,-9,124.710918,8.981644)" fill="#0074d9"/>
<use data-text="p" xlink:href="#font_2_19" transform="matrix(9,0,0,-9,129.2109,8.981644)" fill="#0074d9"/>
<use data-text=" " xlink:href="#font_2_1" transform="matrix(9,0,0,-9,134.2149,8.981644)" fill="#0074d9"/>
<use data-text="r" xlink:href="#font_2_2" transform="matrix(9,0,0,-9,137.21192,8.981644)" fill="#0074d9"/>
<use data-text="e" xlink:href="#font_2_3" transform="matrix(9,0,0,-9,140.73992,8.981644)" fill="#0074d9"/>
<use data-text="g" xlink:href="#font_2_4" transform="matrix(9,0,0,-9,144.73592,8.981644)" fill="#0074d9"/>
<use data-text="r" xlink:href="#font_2_2" transform="matrix(9,0,0,-9,149.23592,8.981644)" fill="#0074d9"/>
<use data-text="e" xlink:href="#font_2_3" transform="matrix(9,0,0,-9,152.76392,8.981644)" fill="#0074d9"/>
<use data-text="t" xlink:href="#font_2_5" transform="matrix(9,0,0,-9,156.75992,8.981644)" fill="#0074d9"/>
<use data-text=" " xlink:href="#font_2_1" transform="matrix(9,0,0,-9,160.26093,8.981644)" fill="#0074d9"/>
<use data-text="m" xlink:href="#font_2_6" transform="matrix(9,0,0,-9,163.25792,8.981644)" fill="#0074d9"/>
<use data-text="i" xlink:href="#font_2_7" transform="matrix(9,0,0,-9,170.75492,8.981644)" fill="#0074d9"/>
<use data-text="n" xlink:href="#font_2_8" transform="matrix(9,0,0,-9,173.25693,8.981644)" fill="#0074d9"/>
<use data-text="i" xlink:href="#font_2_7" transform="matrix(9,0,0,-9,178.26093,8.981644)" fill="#0074d9"/>
<use data-text="m" xlink:href="#font_2_6" transform="matrix(9,0,0,-9,180.76291,8.981644)" fill="#0074d9"/>
<use data-text="i" xlink:href="#font_2_7" transform="matrix(9,0,0,-9,188.25992,8.981644)" fill="#0074d9"/>
<use data-text="z" xlink:href="#font_2_27" transform="matrix(9,0,0,-9,190.7619,8.981644)" fill="#0074d9"/>
<use data-text="e" xlink:href="#font_2_3" transform="matrix(9,0,0,-9,194.7579,8.981644)" fill="#0074d9"/>
<use data-text="r" xlink:href="#font_2_2" transform="matrix(9,0,0,-9,198.7539,8.981644)" fill="#0074d9"/>
<use data-text="&#x1d462;" xlink:href="#font_3_13" transform="matrix(9,0,0,-9,18.874312,76.47332)"/>
<use data-text="(" xlink:href="#font_3_4" transform="matrix(6.3,0,0,-6.3,24.02231,73.20632)"/>
<use data-text="&#x1d461;" xlink:href="#font_3_5" transform="matrix(6.3,0,0,-6.3,26.473011,73.20632)"/>
<use data-text=")" xlink:href="#font_3_6" transform="matrix(6.3,0,0,-6.3,29.19461,73.20632)"/>
<use data-text="&#x0394;" xlink:href="#font_3_1" transform="matrix(9,0,0,-9,6.2037656,90.65105)"/>
<use data-text="&#x1d45b;" xlink:href="#font_3_2" transform="matrix(6.3,0,0,-6.3,13.700766,87.38405)"/>
<use data-text="&#x2192;" xlink:href="#font_3_14" transform="matrix(9,0,0,-9,21.152565,90.65105)"/>
<use data-text="&#x211d;" xlink:href="#font_3_15" transform="matrix(9,0,0,-9,32.652566,90.65105)"/>
<use data-text="&#x22ee;" xlink:href="#font_3_16" transform="matrix(9,0,0,-9,135.08199,108.75224)"/>
<use data-text="&#x1d465;" xlink:href="#font_3_11" transform="matrix(9,0,0,-9,68.929729,34.23291)"/>
<use data-text="(" xlink:href="#font_3_4" transform="matrix(6.3,0,0,-6.3,74.07772,29.42241)"/>
<use data-text="&#x1d461;" xlink:href="#font_3_5" transform="matrix(6.3,0,0,-6.3,76.52843,29.42241)"/>
<use data-text=")" xlink:href="#font_3_6" transform="matrix(6.3,0,0,-6.3,79.25002,29.42241)"/>
<use data-text="1" xlink:href="#font_3_8" transform="matrix(6.3,0,0,-6.3,74.07772,36.608)"/>
<use data-text="&#x1d462;" xlink:href="#font_3_13" transform="matrix(9,0,0,-9,82.20473,34.23291)"/>
<use data-text="(" xlink:href="#font_3_4" transform="matrix(6.3,0,0,-6.3,87.35272,30.965912)"/>
<use data-text="&#x1d461;" xlink:href="#font_3_5" transform="matrix(6.3,0,0,-6.3,89.80342,30.965912)"/>
<use data-text=")" xlink:href="#font_3_6" transform="matrix(6.3,0,0,-6.3,92.525028,30.965912)"/>
<use data-text="&#x1d45d;" xlink:href="#font_3_7" transform="matrix(9,0,0,-9,179.2748,34.23291)"/>
<use data-text="(" xlink:href="#font_3_4" transform="matrix(6.3,0,0,-6.3,183.9368,29.42241)"/>
<use data-text="&#x1d461;" xlink:href="#font_3_5" transform="matrix(6.3,0,0,-6.3,186.3875,29.42241)"/>
<use data-text=")" xlink:href="#font_3_6" transform="matrix(6.3,0,0,-6.3,189.10909,29.42241)"/>
<use data-text="1" xlink:href="#font_3_8" transform="matrix(6.3,0,0,-6.3,183.80179,36.608)"/>
<use data-text="&#x1d465;" xlink:href="#font_3_11" transform="matrix(9,0,0,-9,68.929729,73.917949)"/>
<use data-text="(" xlink:href="#font_3_4" transform="matrix(6.3,0,0,-6.3,74.07772,69.107448)"/>
<use data-text="&#x1d461;" xlink:href="#font_3_5" transform="matrix(6.3,0,0,-6.3,76.52843,69.107448)"/>
<use data-text=")" xlink:href="#font_3_6" transform="matrix(6.3,0,0,-6.3,79.25002,69.107448)"/>
<use data-text="2" xlink:href="#font_3_17" transform="matrix(6.3,0,0,-6.3,74.07772,76.293048)"/>
<use data-text="&#x1d462;" xlink:href="#font_3_13" transform="matrix(9,0,0,-9,82.20473,73.917949)"/>
<use data-text="(" xlink:href="#font_3_4" transform="matrix(6.3,0,0,-6.3,87.35272,70.65095)"/>
<use data-text="&#x1d461;" xlink:href="#font_3_5" transform="matrix(6.3,0,0,-6.3,89.80342,70.65095)"/>
<use data-text=")" xlink:href="#font_3_6" transform="matrix(6.3,0,0,-6.3,92.525028,70.65095)"/>
<use data-text="&#x1d45d;" xlink:href="#font_3_7" transform="matrix(9,0,0,-9,179.2748,73.917949)"/>
<use data-text="(" xlink:href="#font_3_4" transform="matrix(6.3,0,0,-6.3,183.9368,69.107448)"/>
<use data-text="&#x1d461;" xlink:href="#font_3_5" transform="matrix(6.3,0,0,-6.3,186.3875,69.107448)"/>
<use data-text=")" xlink:href="#font_3_6" transform="matrix(6.3,0,0,-6.3,189.10909,69.107448)"/>
<use data-text="2" xlink:href="#font_3_17" transform="matrix(6.3,0,0,-6.3,183.80179,76.293048)"/>
<use data-text="&#x1d465;" xlink:href="#font_3_11" transform="matrix(9,0,0,-9,68.929729,144.82865)"/>
<use data-text="(" xlink:href="#font_3_4" transform="matrix(6.3,0,0,-6.3,74.07772,141.27094)"/>
<use data-text="&#x1d461;" xlink:href="#font_3_5" transform="matrix(6.3,0,0,-6.3,76.52843,141.27094)"/>
<use data-text=")" xlink:href="#font_3_6" transform="matrix(6.3,0,0,-6.3,79.25002,141.27094)"/>
<use data-text="&#x1d45b;" xlink:href="#font_3_2" transform="matrix(6.3,0,0,-6.3,74.07772,147.05164)"/>
<use data-text="&#x1d462;" xlink:href="#font_3_13" transform="matrix(9,0,0,-9,82.20473,144.82865)"/>
<use data-text="(" xlink:href="#font_3_4" transform="matrix(6.3,0,0,-6.3,87.35272,141.56163)"/>
<use data-text="&#x1d461;" xlink:href="#font_3_5" transform="matrix(6.3,0,0,-6.3,89.80342,141.56163)"/>
<use data-text=")" xlink:href="#font_3_6" transform="matrix(6.3,0,0,-6.3,92.525028,141.56163)"/>
<use data-text="&#x1d45d;" xlink:href="#font_3_7" transform="matrix(9,0,0,-9,179.2748,127.82076)"/>
<use data-text="(" xlink:href="#font_3_4" transform="matrix(6.3,0,0,-6.3,183.9368,124.26306)"/>
<use data-text="&#x1d461;" xlink:href="#font_3_5" transform="matrix(6.3,0,0,-6.3,186.3875,124.26306)"/>
<use data-text=")" xlink:href="#font_3_6" transform="matrix(6.3,0,0,-6.3,189.10909,124.26306)"/>
<use data-text="&#x1d45b;" xlink:href="#font_3_2" transform="matrix(6.3,0,0,-6.3,183.80179,130.04376)"/>
<use data-text="&#x1d465;" xlink:href="#font_3_11" transform="matrix(9,0,0,-9,369.98307,74.911998)"/>
<use data-text="(" xlink:href="#font_3_4" transform="matrix(6.3,0,0,-6.3,375.13105,71.645)"/>
<use data-text="&#x1d461;" xlink:href="#font_3_5" transform="matrix(6.3,0,0,-6.3,377.58177,71.645)"/>
<use data-text=")" xlink:href="#font_3_6" transform="matrix(6.3,0,0,-6.3,380.30335,71.645)"/>
<use data-text="&#x2208;" xlink:href="#font_3_18" transform="matrix(9,0,0,-9,385.75807,74.911998)"/>
<use data-text="&#x0394;" xlink:href="#font_3_1" transform="matrix(9,0,0,-9,394.26106,74.911998)"/>
<use data-text="&#x1d45b;" xlink:href="#font_3_2" transform="matrix(6.3,0,0,-6.3,401.75807,71.645)"/>
</svg>
